<svg width="165" height="189" viewBox="0 0 165 189" fill="none" xmlns="http://www.w3.org/2000/svg">
<rect x="9.5" y="125.5" width="146" height="63" rx="10.5" fill="#F3F3F3"/>
<rect x="9.5" y="125.5" width="146" height="63" rx="10.5" stroke="black"/>
<path d="M58.6776 139.648H56.9048C56.8366 139.269 56.7098 138.936 56.5241 138.648C56.3385 138.36 56.1113 138.116 55.8423 137.915C55.5734 137.714 55.2723 137.562 54.9389 137.46C54.6094 137.358 54.259 137.307 53.8878 137.307C53.2173 137.307 52.617 137.475 52.0866 137.812C51.5601 138.15 51.1435 138.644 50.8366 139.295C50.5336 139.947 50.3821 140.742 50.3821 141.682C50.3821 142.629 50.5336 143.428 50.8366 144.08C51.1435 144.731 51.562 145.223 52.0923 145.557C52.6226 145.89 53.2192 146.057 53.8821 146.057C54.2495 146.057 54.598 146.008 54.9276 145.909C55.2609 145.807 55.562 145.657 55.831 145.46C56.0999 145.263 56.3272 145.023 56.5128 144.739C56.7022 144.451 56.8329 144.121 56.9048 143.75L58.6776 143.756C58.5829 144.328 58.3991 144.854 58.1264 145.335C57.8575 145.812 57.5109 146.225 57.0866 146.574C56.6662 146.919 56.1851 147.186 55.6435 147.375C55.1018 147.564 54.5109 147.659 53.8707 147.659C52.8632 147.659 51.9654 147.42 51.1776 146.943C50.3897 146.462 49.7685 145.775 49.3139 144.881C48.8632 143.987 48.6378 142.92 48.6378 141.682C48.6378 140.439 48.8651 139.373 49.3196 138.483C49.7741 137.589 50.3954 136.903 51.1832 136.426C51.9711 135.945 52.867 135.705 53.8707 135.705C54.4882 135.705 55.0639 135.794 55.598 135.972C56.1359 136.146 56.6188 136.403 57.0469 136.744C57.4749 137.081 57.8291 137.494 58.1094 137.983C58.3897 138.468 58.5791 139.023 58.6776 139.648ZM63.1818 147.693C62.6288 147.693 62.1288 147.591 61.6818 147.386C61.2348 147.178 60.8807 146.877 60.6193 146.483C60.3617 146.089 60.233 145.606 60.233 145.034C60.233 144.542 60.3277 144.136 60.517 143.818C60.7064 143.5 60.9621 143.248 61.2841 143.062C61.6061 142.877 61.9659 142.737 62.3636 142.642C62.7614 142.547 63.1667 142.475 63.5795 142.426C64.1023 142.366 64.5265 142.316 64.8523 142.278C65.178 142.237 65.4148 142.17 65.5625 142.08C65.7102 141.989 65.7841 141.841 65.7841 141.636V141.597C65.7841 141.1 65.6439 140.716 65.3636 140.443C65.0871 140.17 64.6742 140.034 64.125 140.034C63.553 140.034 63.1023 140.161 62.7727 140.415C62.447 140.665 62.2216 140.943 62.0966 141.25L60.5 140.886C60.6894 140.356 60.9659 139.928 61.3295 139.602C61.697 139.273 62.1193 139.034 62.5966 138.886C63.0739 138.735 63.5758 138.659 64.1023 138.659C64.4508 138.659 64.8201 138.701 65.2102 138.784C65.6042 138.864 65.9716 139.011 66.3125 139.227C66.6572 139.443 66.9394 139.752 67.1591 140.153C67.3788 140.551 67.4886 141.068 67.4886 141.705V147.5H65.8295V146.307H65.7614C65.6515 146.527 65.4867 146.742 65.267 146.955C65.0473 147.167 64.7652 147.343 64.4205 147.483C64.0758 147.623 63.6629 147.693 63.1818 147.693ZM63.5511 146.33C64.0208 146.33 64.4223 146.237 64.7557 146.051C65.0928 145.866 65.3485 145.623 65.5227 145.324C65.7008 145.021 65.7898 144.697 65.7898 144.352V143.227C65.7292 143.288 65.6117 143.345 65.4375 143.398C65.267 143.447 65.072 143.491 64.8523 143.528C64.6326 143.562 64.4186 143.595 64.2102 143.625C64.0019 143.652 63.8277 143.674 63.6875 143.693C63.358 143.735 63.0568 143.805 62.7841 143.903C62.5152 144.002 62.2992 144.144 62.1364 144.33C61.9773 144.511 61.8977 144.754 61.8977 145.057C61.8977 145.477 62.053 145.795 62.3636 146.011C62.6742 146.223 63.0701 146.33 63.5511 146.33ZM71.4503 142.318V147.5H69.7514V138.773H71.3821V140.193H71.4901C71.6908 139.731 72.0052 139.36 72.4332 139.08C72.8651 138.799 73.4086 138.659 74.0639 138.659C74.6586 138.659 75.1795 138.784 75.6264 139.034C76.0734 139.28 76.42 139.648 76.6662 140.136C76.9124 140.625 77.0355 141.229 77.0355 141.949V147.5H75.3366V142.153C75.3366 141.521 75.1719 141.027 74.8423 140.67C74.5128 140.311 74.0601 140.131 73.4844 140.131C73.0904 140.131 72.7401 140.216 72.4332 140.386C72.1302 140.557 71.8897 140.807 71.7116 141.136C71.5374 141.462 71.4503 141.856 71.4503 142.318ZM81.8537 147.693C81.3007 147.693 80.8007 147.591 80.3537 147.386C79.9067 147.178 79.5526 146.877 79.2912 146.483C79.0336 146.089 78.9048 145.606 78.9048 145.034C78.9048 144.542 78.9995 144.136 79.1889 143.818C79.3783 143.5 79.634 143.248 79.956 143.062C80.2779 142.877 80.6378 142.737 81.0355 142.642C81.4332 142.547 81.8385 142.475 82.2514 142.426C82.7741 142.366 83.1984 142.316 83.5241 142.278C83.8499 142.237 84.0866 142.17 84.2344 142.08C84.3821 141.989 84.456 141.841 84.456 141.636V141.597C84.456 141.1 84.3158 140.716 84.0355 140.443C83.759 140.17 83.3461 140.034 82.7969 140.034C82.2249 140.034 81.7741 140.161 81.4446 140.415C81.1188 140.665 80.8935 140.943 80.7685 141.25L79.1719 140.886C79.3613 140.356 79.6378 139.928 80.0014 139.602C80.3688 139.273 80.7912 139.034 81.2685 138.886C81.7457 138.735 82.2476 138.659 82.7741 138.659C83.1226 138.659 83.492 138.701 83.8821 138.784C84.276 138.864 84.6435 139.011 84.9844 139.227C85.3291 139.443 85.6113 139.752 85.831 140.153C86.0507 140.551 86.1605 141.068 86.1605 141.705V147.5H84.5014V146.307H84.4332C84.3234 146.527 84.1586 146.742 83.9389 146.955C83.7192 147.167 83.437 147.343 83.0923 147.483C82.7476 147.623 82.3348 147.693 81.8537 147.693ZM82.223 146.33C82.6927 146.33 83.0942 146.237 83.4276 146.051C83.7647 145.866 84.0204 145.623 84.1946 145.324C84.3726 145.021 84.4616 144.697 84.4616 144.352V143.227C84.401 143.288 84.2836 143.345 84.1094 143.398C83.9389 143.447 83.7438 143.491 83.5241 143.528C83.3045 143.562 83.0904 143.595 82.8821 143.625C82.6738 143.652 82.4995 143.674 82.3594 143.693C82.0298 143.735 81.7287 143.805 81.456 143.903C81.187 144.002 80.9711 144.144 80.8082 144.33C80.6491 144.511 80.5696 144.754 80.5696 145.057C80.5696 145.477 80.7249 145.795 81.0355 146.011C81.3461 146.223 81.742 146.33 82.223 146.33ZM88.4233 147.5V138.773H90.0653V140.159H90.1562C90.3153 139.689 90.5956 139.32 90.9972 139.051C91.4025 138.778 91.8608 138.642 92.3722 138.642C92.4782 138.642 92.6032 138.646 92.7472 138.653C92.8949 138.661 93.0104 138.67 93.0938 138.682V140.307C93.0256 140.288 92.9044 140.267 92.7301 140.244C92.5559 140.218 92.3816 140.205 92.2074 140.205C91.8059 140.205 91.4479 140.29 91.1335 140.46C90.8229 140.627 90.5767 140.86 90.3949 141.159C90.2131 141.455 90.1222 141.792 90.1222 142.17V147.5H88.4233ZM95.9034 150.773C95.6496 150.773 95.4186 150.752 95.2102 150.71C95.0019 150.672 94.8466 150.631 94.7443 150.585L95.1534 149.193C95.464 149.277 95.7405 149.313 95.983 149.301C96.2254 149.29 96.4394 149.199 96.625 149.028C96.8144 148.858 96.9811 148.58 97.125 148.193L97.3352 147.614L94.142 138.773H95.9602L98.1705 145.545H98.2614L100.472 138.773H102.295L98.6989 148.665C98.5322 149.119 98.3201 149.504 98.0625 149.818C97.8049 150.136 97.4981 150.375 97.142 150.534C96.786 150.693 96.3731 150.773 95.9034 150.773Z" fill="#1E1E1E"/>
<path d="M111.469 138.628C112.049 138.628 112.508 138.806 112.847 139.162C113.187 139.518 113.356 139.956 113.356 140.475C113.356 140.772 113.13 141.558 112.678 142.833C112.225 144.109 112.006 145.036 112.02 145.614C112.063 146.237 112.254 146.726 112.593 147.082C112.89 147.349 113.194 147.527 113.505 147.616C113.759 147.735 113.979 147.794 114.162 147.794H114.184L115.923 140.43C117.11 135.521 117.711 133.059 117.725 133.044C117.768 133.015 117.881 133 118.064 133C118.347 133 118.489 133.052 118.489 133.156C118.489 133.289 117.916 135.744 116.771 140.519C115.611 145.384 115.032 147.824 115.032 147.839C115.032 147.854 115.074 147.861 115.159 147.861C116.375 147.861 117.527 147.208 118.616 145.903C119.704 144.598 120.256 143.382 120.27 142.255C120.27 141.899 120.213 141.595 120.1 141.343C119.987 141.09 119.86 140.912 119.719 140.809C119.577 140.705 119.45 140.571 119.337 140.408C119.224 140.245 119.167 140.075 119.167 139.897C119.167 139.585 119.287 139.288 119.528 139.007C119.768 138.725 120.065 138.584 120.418 138.584C120.687 138.584 120.934 138.717 121.161 138.984C121.387 139.251 121.5 139.689 121.5 140.297C121.5 140.727 121.422 141.306 121.267 142.032C121.111 142.759 120.984 143.263 120.885 143.545C120.433 144.954 119.634 146.163 118.489 147.171C117.343 148.18 116.191 148.684 115.032 148.684H114.82L114.332 150.753C113.993 152.147 113.823 152.852 113.823 152.867C113.795 152.956 113.653 153 113.399 153H113.123C113.038 152.911 112.996 152.852 112.996 152.822C112.996 152.748 113.159 152.043 113.484 150.709C113.809 149.374 113.971 148.684 113.971 148.64C113.872 148.625 113.774 148.617 113.675 148.617C111.427 148.291 110.303 147.201 110.303 145.347C110.303 144.828 110.536 143.901 111.002 142.566C111.469 141.231 111.709 140.379 111.723 140.008C111.723 139.993 111.723 139.978 111.723 139.963C111.723 139.83 111.723 139.741 111.723 139.696C111.723 139.652 111.695 139.6 111.639 139.541C111.582 139.481 111.504 139.452 111.405 139.452H111.321C110.995 139.452 110.698 139.593 110.43 139.874C110.161 140.156 109.949 140.46 109.794 140.786C109.638 141.113 109.518 141.424 109.433 141.721C109.348 142.017 109.292 142.181 109.263 142.21C109.235 142.24 109.122 142.255 108.924 142.255H108.627C108.542 142.166 108.5 142.099 108.5 142.055C108.5 141.877 108.592 141.535 108.776 141.031C108.959 140.527 109.299 140 109.794 139.452C110.288 138.903 110.847 138.628 111.469 138.628Z" fill="black"/>
<rect x="13.5" y="158.5" width="138" height="26" rx="7.5" fill="white"/>
<rect x="13.5" y="158.5" width="138" height="26" rx="7.5" stroke="black"/>
<rect x="15" y="164" width="134" height="15" fill="#EEE7AC"/>
<path d="M14.972 175.5V174.324H17.288V170.076H15.272V168.9H18.548V174.324H20.672V175.5H14.972ZM17.792 167.76C17.512 167.76 17.288 167.688 17.12 167.544C16.952 167.392 16.868 167.192 16.868 166.944C16.868 166.688 16.952 166.488 17.12 166.344C17.288 166.192 17.512 166.116 17.792 166.116C18.072 166.116 18.296 166.192 18.464 166.344C18.632 166.488 18.716 166.688 18.716 166.944C18.716 167.192 18.632 167.392 18.464 167.544C18.296 167.688 18.072 167.76 17.792 167.76ZM23.7513 175.5V170.772H21.8793V169.596H23.7513V168.528C23.7513 167.976 23.9273 167.54 24.2793 167.22C24.6313 166.9 25.1113 166.74 25.7193 166.74H27.6513V167.892H25.7433C25.5193 167.892 25.3433 167.948 25.2153 168.06C25.0953 168.172 25.0353 168.332 25.0353 168.54V169.596H27.6513V170.772H25.0353V175.5H23.7513ZM34.2106 176.94C33.0346 176.644 32.1226 176.088 31.4746 175.272C30.8266 174.448 30.5026 173.444 30.5026 172.26V170.1C30.5026 169.324 30.6506 168.62 30.9466 167.988C31.2506 167.356 31.6786 166.82 32.2306 166.38C32.7906 165.932 33.4506 165.612 34.2106 165.42V166.668C33.7146 166.788 33.2866 167.008 32.9266 167.328C32.5666 167.64 32.2866 168.032 32.0866 168.504C31.8946 168.976 31.7986 169.508 31.7986 170.1V172.26C31.7986 172.836 31.8946 173.36 32.0866 173.832C32.2866 174.304 32.5666 174.696 32.9266 175.008C33.2866 175.312 33.7146 175.524 34.2106 175.644V176.94ZM38.5259 175.62C37.8379 175.62 37.2939 175.444 36.8939 175.092C36.5019 174.732 36.3059 174.244 36.3059 173.628C36.3059 173.004 36.5139 172.516 36.9299 172.164C37.3539 171.804 37.9339 171.624 38.6699 171.624H40.5059V171.012C40.5059 170.652 40.3939 170.372 40.1699 170.172C39.9459 169.972 39.6299 169.872 39.2219 169.872C38.8619 169.872 38.5619 169.952 38.3219 170.112C38.0819 170.264 37.9419 170.468 37.9019 170.724H36.6299C36.7019 170.132 36.9739 169.66 37.4459 169.308C37.9259 168.956 38.5299 168.78 39.2579 168.78C40.0419 168.78 40.6619 168.98 41.1179 169.38C41.5739 169.772 41.8019 170.308 41.8019 170.988V175.5H40.5419V174.288H40.3259L40.5419 174.048C40.5419 174.528 40.3579 174.912 39.9899 175.2C39.6219 175.48 39.1339 175.62 38.5259 175.62ZM38.9099 174.624C39.3739 174.624 39.7539 174.508 40.0499 174.276C40.3539 174.036 40.5059 173.732 40.5059 173.364V172.5H38.6939C38.3579 172.5 38.0899 172.592 37.8899 172.776C37.6979 172.96 37.6019 173.212 37.6019 173.532C37.6019 173.868 37.7179 174.136 37.9499 174.336C38.1819 174.528 38.5019 174.624 38.9099 174.624ZM68.4352 175.62C67.8912 175.62 67.4592 175.472 67.1392 175.176C66.8192 174.872 66.6592 174.46 66.6592 173.94L66.9352 174.24H66.6592V175.5H65.3752V166.74H66.6712V168.624L66.6352 170.16H66.9352L66.6592 170.46C66.6592 169.94 66.8192 169.532 67.1392 169.236C67.4672 168.932 67.8992 168.78 68.4352 168.78C69.0992 168.78 69.6312 169.004 70.0312 169.452C70.4312 169.9 70.6312 170.508 70.6312 171.276V173.136C70.6312 173.896 70.4312 174.5 70.0312 174.948C69.6312 175.396 69.0992 175.62 68.4352 175.62ZM67.9912 174.492C68.4152 174.492 68.7472 174.372 68.9872 174.132C69.2272 173.884 69.3472 173.528 69.3472 173.064V171.336C69.3472 170.872 69.2272 170.52 68.9872 170.28C68.7472 170.032 68.4152 169.908 67.9912 169.908C67.5832 169.908 67.2592 170.036 67.0192 170.292C66.7872 170.54 66.6712 170.888 66.6712 171.336V173.064C66.6712 173.512 66.7872 173.864 67.0192 174.12C67.2592 174.368 67.5832 174.492 67.9912 174.492ZM81.7218 174.372V172.128H79.5018V170.952H81.7218V168.708H82.9938V170.952H85.2138V172.128H82.9938V174.372H81.7218ZM96.0884 175.62C95.4004 175.62 94.8564 175.444 94.4564 175.092C94.0644 174.732 93.8684 174.244 93.8684 173.628C93.8684 173.004 94.0764 172.516 94.4924 172.164C94.9164 171.804 95.4964 171.624 96.2324 171.624H98.0684V171.012C98.0684 170.652 97.9564 170.372 97.7324 170.172C97.5084 169.972 97.1924 169.872 96.7844 169.872C96.4244 169.872 96.1244 169.952 95.8844 170.112C95.6444 170.264 95.5044 170.468 95.4644 170.724H94.1924C94.2644 170.132 94.5364 169.66 95.0084 169.308C95.4884 168.956 96.0924 168.78 96.8204 168.78C97.6044 168.78 98.2244 168.98 98.6804 169.38C99.1364 169.772 99.3644 170.308 99.3644 170.988V175.5H98.1044V174.288H97.8884L98.1044 174.048C98.1044 174.528 97.9204 174.912 97.5524 175.2C97.1844 175.48 96.6964 175.62 96.0884 175.62ZM96.4724 174.624C96.9364 174.624 97.3164 174.508 97.6124 174.276C97.9164 174.036 98.0684 173.732 98.0684 173.364V172.5H96.2564C95.9204 172.5 95.6524 172.592 95.4524 172.776C95.2604 172.96 95.1644 173.212 95.1644 173.532C95.1644 173.868 95.2804 174.136 95.5124 174.336C95.7444 174.528 96.0644 174.624 96.4724 174.624ZM104.412 175.62C103.868 175.62 103.436 175.472 103.116 175.176C102.796 174.872 102.636 174.46 102.636 173.94L102.912 174.24H102.636V175.5H101.352V166.74H102.648V168.624L102.612 170.16H102.912L102.636 170.46C102.636 169.94 102.796 169.532 103.116 169.236C103.444 168.932 103.876 168.78 104.412 168.78C105.076 168.78 105.608 169.004 106.008 169.452C106.408 169.9 106.608 170.508 106.608 171.276V173.136C106.608 173.896 106.408 174.5 106.008 174.948C105.608 175.396 105.076 175.62 104.412 175.62ZM103.968 174.492C104.392 174.492 104.724 174.372 104.964 174.132C105.204 173.884 105.324 173.528 105.324 173.064V171.336C105.324 170.872 105.204 170.52 104.964 170.28C104.724 170.032 104.392 169.908 103.968 169.908C103.56 169.908 103.236 170.036 102.996 170.292C102.764 170.54 102.648 170.888 102.648 171.336V173.064C102.648 173.512 102.764 173.864 102.996 174.12C103.236 174.368 103.56 174.492 103.968 174.492ZM110.911 175.608C110.439 175.608 110.023 175.532 109.663 175.38C109.311 175.228 109.031 175.02 108.823 174.756C108.623 174.484 108.507 174.164 108.475 173.796H109.771C109.803 174.012 109.919 174.188 110.119 174.324C110.319 174.452 110.583 174.516 110.911 174.516H111.427C111.819 174.516 112.115 174.436 112.315 174.276C112.515 174.116 112.615 173.904 112.615 173.64C112.615 173.384 112.523 173.184 112.339 173.04C112.163 172.888 111.899 172.788 111.547 172.74L110.695 172.608C109.991 172.496 109.471 172.296 109.135 172.008C108.807 171.712 108.643 171.276 108.643 170.7C108.643 170.092 108.839 169.624 109.231 169.296C109.631 168.96 110.219 168.792 110.995 168.792H111.451C112.139 168.792 112.687 168.952 113.095 169.272C113.511 169.584 113.747 170.004 113.803 170.532H112.507C112.475 170.34 112.367 170.184 112.183 170.064C112.007 169.944 111.763 169.884 111.451 169.884H110.995C110.619 169.884 110.343 169.956 110.167 170.1C109.999 170.236 109.915 170.44 109.915 170.712C109.915 170.952 109.991 171.132 110.143 171.252C110.295 171.372 110.531 171.456 110.851 171.504L111.727 171.648C112.471 171.752 113.015 171.96 113.359 172.272C113.711 172.576 113.887 173.02 113.887 173.604C113.887 174.236 113.679 174.728 113.263 175.08C112.855 175.432 112.243 175.608 111.427 175.608H110.911ZM120.554 176.94C119.378 176.644 118.466 176.088 117.818 175.272C117.17 174.448 116.846 173.444 116.846 172.26V170.1C116.846 169.324 116.994 168.62 117.29 167.988C117.594 167.356 118.022 166.82 118.574 166.38C119.134 165.932 119.794 165.612 120.554 165.42V166.668C120.058 166.788 119.63 167.008 119.27 167.328C118.91 167.64 118.63 168.032 118.43 168.504C118.238 168.976 118.142 169.508 118.142 170.1V172.26C118.142 172.836 118.238 173.36 118.43 173.832C118.63 174.304 118.91 174.696 119.27 175.008C119.63 175.312 120.058 175.524 120.554 175.644V176.94ZM125.578 175.62C125.034 175.62 124.554 175.52 124.138 175.32C123.73 175.112 123.414 174.816 123.19 174.432C122.974 174.04 122.866 173.584 122.866 173.064V171.336C122.866 170.808 122.974 170.352 123.19 169.968C123.414 169.584 123.73 169.292 124.138 169.092C124.554 168.884 125.034 168.78 125.578 168.78C126.37 168.78 127.006 168.988 127.486 169.404C127.966 169.82 128.218 170.388 128.242 171.108H126.946C126.922 170.732 126.79 170.44 126.55 170.232C126.31 170.024 125.986 169.92 125.578 169.92C125.138 169.92 124.79 170.044 124.534 170.292C124.278 170.532 124.15 170.876 124.15 171.324V173.064C124.15 173.512 124.278 173.86 124.534 174.108C124.79 174.356 125.138 174.48 125.578 174.48C125.986 174.48 126.31 174.376 126.55 174.168C126.79 173.96 126.922 173.668 126.946 173.292H128.242C128.218 174.012 127.966 174.58 127.486 174.996C127.006 175.412 126.37 175.62 125.578 175.62ZM130.505 176.94V175.644C131.001 175.524 131.429 175.312 131.789 175.008C132.149 174.696 132.425 174.304 132.617 173.832C132.817 173.36 132.917 172.836 132.917 172.26V170.1C132.917 169.508 132.817 168.976 132.617 168.504C132.425 168.032 132.149 167.64 131.789 167.328C131.429 167.008 131.001 166.788 130.505 166.668V165.42C131.273 165.612 131.933 165.932 132.485 166.38C133.037 166.82 133.461 167.356 133.757 167.988C134.061 168.62 134.213 169.324 134.213 170.1V172.26C134.213 173.444 133.889 174.448 133.241 175.272C132.593 176.088 131.681 176.644 130.505 176.94ZM137.7 176.94V175.644C138.196 175.524 138.624 175.312 138.984 175.008C139.344 174.696 139.62 174.304 139.812 173.832C140.012 173.36 140.112 172.836 140.112 172.26V170.1C140.112 169.508 140.012 168.976 139.812 168.504C139.62 168.032 139.344 167.64 138.984 167.328C138.624 167.008 138.196 166.788 137.7 166.668V165.42C138.468 165.612 139.128 165.932 139.68 166.38C140.232 166.82 140.656 167.356 140.952 167.988C141.256 168.62 141.408 169.324 141.408 170.1V172.26C141.408 173.444 141.084 174.448 140.436 175.272C139.788 176.088 138.876 176.644 137.7 176.94ZM145.472 177.42L146.432 173.688H148.16L146.6 177.42H145.472ZM146.996 170.688C146.716 170.688 146.488 170.6 146.312 170.424C146.136 170.24 146.048 170.008 146.048 169.728C146.048 169.456 146.136 169.232 146.312 169.056C146.496 168.872 146.724 168.78 146.996 168.78H147.236C147.508 168.78 147.732 168.872 147.908 169.056C148.092 169.232 148.184 169.456 148.184 169.728C148.184 170.008 148.096 170.24 147.92 170.424C147.744 170.6 147.516 170.688 147.236 170.688H146.996Z" fill="#24292E"/>
<path d="M50.9486 174.78V173.556L54.5366 171.84C54.6966 171.768 54.8486 171.708 54.9926 171.66C55.1366 171.612 55.2446 171.58 55.3166 171.564C55.2366 171.548 55.1206 171.516 54.9686 171.468C54.8246 171.412 54.6806 171.348 54.5366 171.276L50.9486 169.56V168.312L56.2046 170.868V172.224L50.9486 174.78Z" fill="#D73A49"/>
<path d="M145 0.5C150.799 0.5 155.5 5.20101 155.5 11V105C155.5 110.799 150.799 115.5 145 115.5H20C14.201 115.5 9.5 110.799 9.5 105V11L9.51367 10.46C9.79475 4.91194 14.3821 0.5 20 0.5H145Z" fill="#F3F3F3"/>
<path d="M145 0.5C150.799 0.5 155.5 5.20101 155.5 11V105C155.5 110.799 150.799 115.5 145 115.5H20C14.201 115.5 9.5 110.799 9.5 105V11L9.51367 10.46C9.79475 4.91194 14.3821 0.5 20 0.5H145Z" stroke="black"/>
<path d="M42.2784 21V9.36364H46.4261C47.3314 9.36364 48.0814 9.52841 48.6761 9.85795C49.2708 10.1875 49.7159 10.6383 50.0114 11.2102C50.3068 11.7784 50.4545 12.4186 50.4545 13.1307C50.4545 13.8466 50.3049 14.4905 50.0057 15.0625C49.7102 15.6307 49.2633 16.0814 48.6648 16.4148C48.0701 16.7443 47.322 16.9091 46.4205 16.9091H43.5682V15.4205H46.2614C46.8333 15.4205 47.2973 15.322 47.6534 15.125C48.0095 14.9242 48.2708 14.6515 48.4375 14.3068C48.6042 13.9621 48.6875 13.5701 48.6875 13.1307C48.6875 12.6913 48.6042 12.3011 48.4375 11.9602C48.2708 11.6193 48.0076 11.3523 47.6477 11.1591C47.2917 10.9659 46.822 10.8693 46.2386 10.8693H44.0341V21H42.2784ZM52.3764 21V12.2727H54.0185V13.6591H54.1094C54.2685 13.1894 54.5488 12.8201 54.9503 12.5511C55.3556 12.2784 55.8139 12.142 56.3253 12.142C56.4313 12.142 56.5563 12.1458 56.7003 12.1534C56.848 12.161 56.9635 12.1705 57.0469 12.1818V13.8068C56.9787 13.7879 56.8575 13.767 56.6832 13.7443C56.509 13.7178 56.3348 13.7045 56.1605 13.7045C55.759 13.7045 55.401 13.7898 55.0866 13.9602C54.776 14.1269 54.5298 14.3598 54.348 14.6591C54.1662 14.9545 54.0753 15.2917 54.0753 15.6705V21H52.3764ZM61.8807 21.1761C61.0625 21.1761 60.3485 20.9886 59.7386 20.6136C59.1288 20.2386 58.6553 19.714 58.3182 19.0398C57.9811 18.3655 57.8125 17.5777 57.8125 16.6761C57.8125 15.7708 57.9811 14.9792 58.3182 14.3011C58.6553 13.6231 59.1288 13.0966 59.7386 12.7216C60.3485 12.3466 61.0625 12.1591 61.8807 12.1591C62.6989 12.1591 63.4129 12.3466 64.0227 12.7216C64.6326 13.0966 65.1061 13.6231 65.4432 14.3011C65.7803 14.9792 65.9489 15.7708 65.9489 16.6761C65.9489 17.5777 65.7803 18.3655 65.4432 19.0398C65.1061 19.714 64.6326 20.2386 64.0227 20.6136C63.4129 20.9886 62.6989 21.1761 61.8807 21.1761ZM61.8864 19.75C62.4167 19.75 62.8561 19.6098 63.2045 19.3295C63.553 19.0492 63.8106 18.6761 63.9773 18.2102C64.1477 17.7443 64.233 17.2311 64.233 16.6705C64.233 16.1136 64.1477 15.6023 63.9773 15.1364C63.8106 14.6667 63.553 14.2898 63.2045 14.0057C62.8561 13.7216 62.4167 13.5795 61.8864 13.5795C61.3523 13.5795 60.9091 13.7216 60.5568 14.0057C60.2083 14.2898 59.9489 14.6667 59.7784 15.1364C59.6117 15.6023 59.5284 16.1136 59.5284 16.6705C59.5284 17.2311 59.6117 17.7443 59.7784 18.2102C59.9489 18.6761 60.2083 19.0492 60.5568 19.3295C60.9091 19.6098 61.3523 19.75 61.8864 19.75ZM71.5043 24.4545C70.8111 24.4545 70.2145 24.3636 69.7145 24.1818C69.2183 24 68.813 23.7595 68.4986 23.4602C68.1842 23.161 67.9493 22.8333 67.794 22.4773L69.2543 21.875C69.3565 22.0417 69.4929 22.2178 69.6634 22.4034C69.8376 22.5928 70.0724 22.7538 70.3679 22.8864C70.6671 23.0189 71.0516 23.0852 71.5213 23.0852C72.1652 23.0852 72.6974 22.928 73.1179 22.6136C73.5384 22.303 73.7486 21.8068 73.7486 21.125V19.4091H73.6406C73.5384 19.5947 73.3906 19.8011 73.1974 20.0284C73.008 20.2557 72.7467 20.4527 72.4134 20.6193C72.08 20.786 71.6463 20.8693 71.1122 20.8693C70.4228 20.8693 69.8016 20.7083 69.2486 20.3864C68.6993 20.0606 68.2637 19.5814 67.9418 18.9489C67.6236 18.3125 67.4645 17.5303 67.4645 16.6023C67.4645 15.6742 67.6217 14.8788 67.9361 14.2159C68.2543 13.553 68.6899 13.0455 69.2429 12.6932C69.7959 12.3371 70.4228 12.1591 71.1236 12.1591C71.6652 12.1591 72.1027 12.25 72.4361 12.4318C72.7694 12.6098 73.0289 12.8182 73.2145 13.0568C73.4039 13.2955 73.5497 13.5057 73.652 13.6875H73.777V12.2727H75.4418V21.1932C75.4418 21.9432 75.2675 22.5587 74.919 23.0398C74.5705 23.5208 74.099 23.8769 73.5043 24.108C72.9134 24.339 72.2467 24.4545 71.5043 24.4545ZM71.4872 19.4602C71.9759 19.4602 72.3887 19.3466 72.7259 19.1193C73.0668 18.8883 73.3243 18.5587 73.4986 18.1307C73.6766 17.6989 73.7656 17.1818 73.7656 16.5795C73.7656 15.9924 73.6785 15.4754 73.5043 15.0284C73.33 14.5814 73.0743 14.233 72.7372 13.983C72.4001 13.7292 71.9834 13.6023 71.4872 13.6023C70.9759 13.6023 70.5497 13.7348 70.2088 14C69.8679 14.2614 69.6103 14.6174 69.4361 15.0682C69.2656 15.5189 69.1804 16.0227 69.1804 16.5795C69.1804 17.1515 69.2675 17.6534 69.4418 18.0852C69.616 18.517 69.8736 18.8542 70.2145 19.0966C70.5592 19.339 70.9834 19.4602 71.4872 19.4602ZM77.7202 21V12.2727H79.3622V13.6591H79.4531C79.6122 13.1894 79.8925 12.8201 80.294 12.5511C80.6993 12.2784 81.1577 12.142 81.669 12.142C81.7751 12.142 81.9001 12.1458 82.044 12.1534C82.1918 12.161 82.3073 12.1705 82.3906 12.1818V13.8068C82.3224 13.7879 82.2012 13.767 82.027 13.7443C81.8527 13.7178 81.6785 13.7045 81.5043 13.7045C81.1027 13.7045 80.7448 13.7898 80.4304 13.9602C80.1198 14.1269 79.8736 14.3598 79.6918 14.6591C79.5099 14.9545 79.419 15.2917 79.419 15.6705V21H77.7202ZM86.3224 21.1932C85.7694 21.1932 85.2694 21.0909 84.8224 20.8864C84.3755 20.678 84.0213 20.3769 83.7599 19.983C83.5024 19.589 83.3736 19.1061 83.3736 18.5341C83.3736 18.0417 83.4683 17.6364 83.6577 17.3182C83.8471 17 84.1027 16.7481 84.4247 16.5625C84.7467 16.3769 85.1065 16.2367 85.5043 16.142C85.902 16.0473 86.3073 15.9754 86.7202 15.9261C87.2429 15.8655 87.6671 15.8163 87.9929 15.7784C88.3187 15.7367 88.5554 15.6705 88.7031 15.5795C88.8509 15.4886 88.9247 15.3409 88.9247 15.1364V15.0966C88.9247 14.6004 88.7846 14.2159 88.5043 13.9432C88.2277 13.6705 87.8149 13.5341 87.2656 13.5341C86.6937 13.5341 86.2429 13.661 85.9134 13.9148C85.5876 14.1648 85.3622 14.4432 85.2372 14.75L83.6406 14.3864C83.83 13.8561 84.1065 13.428 84.4702 13.1023C84.8376 12.7727 85.2599 12.5341 85.7372 12.3864C86.2145 12.2348 86.7164 12.1591 87.2429 12.1591C87.5914 12.1591 87.9607 12.2008 88.3509 12.2841C88.7448 12.3636 89.1122 12.5114 89.4531 12.7273C89.7978 12.9432 90.08 13.2519 90.2997 13.6534C90.5194 14.0511 90.6293 14.5682 90.6293 15.2045V21H88.9702V19.8068H88.902C88.7921 20.0265 88.6274 20.2424 88.4077 20.4545C88.188 20.6667 87.9058 20.8428 87.5611 20.983C87.2164 21.1231 86.8035 21.1932 86.3224 21.1932ZM86.6918 19.8295C87.1615 19.8295 87.563 19.7367 87.8963 19.5511C88.2334 19.3655 88.4891 19.1231 88.6634 18.8239C88.8414 18.5208 88.9304 18.197 88.9304 17.8523V16.7273C88.8698 16.7879 88.7524 16.8447 88.5781 16.8977C88.4077 16.947 88.2126 16.9905 87.9929 17.0284C87.7732 17.0625 87.5592 17.0947 87.3509 17.125C87.1425 17.1515 86.9683 17.1742 86.8281 17.1932C86.4986 17.2348 86.1974 17.3049 85.9247 17.4034C85.6558 17.5019 85.4399 17.6439 85.277 17.8295C85.1179 18.0114 85.0384 18.2538 85.0384 18.5568C85.0384 18.9773 85.1937 19.2955 85.5043 19.5114C85.8149 19.7235 86.2107 19.8295 86.6918 19.8295ZM92.892 21V12.2727H94.5227V13.6932H94.6307C94.8125 13.2121 95.1098 12.8371 95.5227 12.5682C95.9356 12.2955 96.4299 12.1591 97.0057 12.1591C97.589 12.1591 98.0777 12.2955 98.4716 12.5682C98.8693 12.8409 99.1629 13.2159 99.3523 13.6932H99.4432C99.6515 13.2273 99.983 12.8561 100.438 12.5795C100.892 12.2992 101.434 12.1591 102.062 12.1591C102.854 12.1591 103.5 12.4072 104 12.9034C104.504 13.3996 104.756 14.1477 104.756 15.1477V21H103.057V15.3068C103.057 14.7159 102.896 14.2879 102.574 14.0227C102.252 13.7576 101.867 13.625 101.42 13.625C100.867 13.625 100.438 13.7955 100.131 14.1364C99.8239 14.4735 99.6705 14.9072 99.6705 15.4375V21H97.9773V15.1989C97.9773 14.7254 97.8295 14.3447 97.5341 14.0568C97.2386 13.7689 96.8542 13.625 96.3807 13.625C96.0587 13.625 95.7614 13.7102 95.4886 13.8807C95.2197 14.0473 95.0019 14.2803 94.8352 14.5795C94.6723 14.8788 94.5909 15.2254 94.5909 15.6193V21H92.892Z" fill="black"/>
<g clip-path="url(#clip0_539_511)">
<path d="M115.396 10.6274C115.396 10.5317 115.067 10.4702 114.41 10.4429C114.133 10.4429 113.954 10.4361 113.873 10.4224C113.792 10.4087 113.752 10.3404 113.752 10.2174C113.752 10.2038 113.764 10.1286 113.787 9.99195C113.856 9.71864 113.908 9.56833 113.942 9.541C113.977 9.51367 115.096 9.5 117.3 9.5C119.493 9.51367 120.664 9.53416 120.814 9.56149C121.552 9.71181 122.17 10.0466 122.666 10.5659C123.162 11.0852 123.416 11.7753 123.427 12.6362C123.427 13.6884 123.047 14.6518 122.285 15.5264C121.489 16.4556 120.462 17.0432 119.204 17.2892C119.123 17.3028 118.518 17.3165 117.387 17.3302H115.743L115.223 19.7694C114.877 21.3546 114.704 22.195 114.704 22.2906C114.704 22.3453 114.71 22.3795 114.721 22.3931C114.733 22.4068 114.773 22.4341 114.842 22.4751C114.912 22.5161 115.01 22.5298 115.137 22.5161C115.264 22.5024 115.454 22.5161 115.708 22.5571H116.244C116.314 22.6801 116.348 22.7552 116.348 22.7826C116.348 23.0012 116.308 23.2062 116.227 23.3975C116.169 23.4658 116.077 23.5 115.95 23.5C115.916 23.5 115.702 23.4932 115.31 23.4795C114.917 23.4658 114.341 23.459 113.579 23.459C112.864 23.459 112.315 23.459 111.935 23.459C111.554 23.459 111.346 23.4658 111.312 23.4795C111.104 23.4795 111 23.4112 111 23.2745C111 23.2472 111.017 23.1515 111.052 22.9876C111.098 22.7689 111.144 22.6459 111.19 22.6186C111.237 22.5913 111.369 22.5708 111.588 22.5571C111.9 22.5571 112.246 22.5366 112.627 22.4956C112.789 22.4546 112.898 22.3726 112.956 22.2496C112.99 22.195 113.406 20.2955 114.202 16.5512C114.998 12.807 115.396 10.8324 115.396 10.6274ZM121.593 12.1442C121.593 11.9666 121.581 11.8231 121.558 11.7138C121.535 11.6044 121.483 11.4541 121.402 11.2628C121.322 11.0715 121.177 10.9212 120.97 10.8119C120.762 10.7025 120.479 10.5932 120.122 10.4839C120.041 10.4702 119.579 10.4566 118.737 10.4429C118.541 10.4429 118.339 10.4429 118.131 10.4429C117.923 10.4429 117.756 10.4497 117.629 10.4634C117.502 10.4771 117.433 10.4771 117.421 10.4634C117.271 10.4771 117.168 10.5386 117.11 10.6479C117.087 10.7299 116.977 11.256 116.781 12.2262C116.585 13.1964 116.383 14.1393 116.175 15.0549C115.968 15.9705 115.864 16.4351 115.864 16.4488C115.864 16.4761 116.331 16.4898 117.266 16.4898H117.473H117.871C119.164 16.4898 120.087 16.1481 120.641 15.4649C120.952 15.0959 121.189 14.5561 121.35 13.8455C121.512 13.1349 121.593 12.5678 121.593 12.1442Z" fill="black"/>
</g>
<rect x="15.5" y="30.5" width="134" height="79" rx="4.5" fill="white"/>
<rect x="15.5" y="30.5" width="134" height="79" rx="4.5" stroke="black"/>
<path d="M22 49.6V33.76H23.2V40.96H26.44V42.16H23.2V49.6H22ZM25.9553 42.16V40.96H33.6353V42.16H25.9553ZM41.5939 46V37.24H44.3419C44.8939 37.24 45.3739 37.348 45.7819 37.564C46.1899 37.772 46.5059 38.068 46.7299 38.452C46.9619 38.836 47.0779 39.288 47.0779 39.808C47.0779 40.392 46.9259 40.9 46.6219 41.332C46.3259 41.756 45.9219 42.056 45.4099 42.232L47.1979 46H45.7219L44.1259 42.4H42.8899V46H41.5939ZM42.8899 41.26H44.3419C44.7739 41.26 45.1179 41.132 45.3739 40.876C45.6299 40.612 45.7579 40.264 45.7579 39.832C45.7579 39.384 45.6299 39.032 45.3739 38.776C45.1179 38.52 44.7739 38.392 44.3419 38.392H42.8899V41.26ZM48.9093 46V37.24H54.0573V38.392H50.1813V40.876H53.6373V42.016H50.1813V44.848H54.0573V46H48.9093ZM55.4926 46L57.7246 37.24H59.4286L61.6606 46H60.3526L59.8246 43.78H57.3406L56.8126 46H55.4926ZM57.5806 42.712H59.5726L58.9726 40.18C58.8686 39.732 58.7806 39.344 58.7086 39.016C58.6446 38.68 58.6006 38.452 58.5766 38.332C58.5526 38.452 58.5086 38.68 58.4446 39.016C58.3806 39.344 58.2926 39.728 58.1806 40.168L57.5806 42.712ZM63.1679 46V37.24H65.6159C66.1919 37.24 66.6919 37.352 67.1159 37.576C67.5399 37.792 67.8679 38.1 68.0999 38.5C68.3399 38.9 68.4599 39.372 68.4599 39.916V43.312C68.4599 43.848 68.3399 44.32 68.0999 44.728C67.8679 45.136 67.5399 45.452 67.1159 45.676C66.6919 45.892 66.1919 46 65.6159 46H63.1679ZM64.4639 44.824H65.6159C66.0959 44.824 66.4719 44.692 66.7439 44.428C67.0239 44.156 67.1639 43.784 67.1639 43.312V39.916C67.1639 39.452 67.0239 39.088 66.7439 38.824C66.4719 38.552 66.0959 38.416 65.6159 38.416H64.4639V44.824ZM70.1592 46V37.24H71.7552L72.6312 40.048C72.7192 40.312 72.7952 40.568 72.8592 40.816C72.9232 41.056 72.9672 41.236 72.9912 41.356C73.0232 41.236 73.0672 41.056 73.1232 40.816C73.1872 40.568 73.2592 40.312 73.3392 40.048L74.1792 37.24H75.7752V46H74.5512V43.048C74.5512 42.672 74.5592 42.256 74.5752 41.8C74.5992 41.336 74.6312 40.872 74.6712 40.408C74.7112 39.936 74.7512 39.488 74.7912 39.064C74.8312 38.632 74.8672 38.256 74.8992 37.936L73.6032 42.196H72.3552L71.0352 37.936C71.0752 38.248 71.1152 38.612 71.1552 39.028C71.1952 39.436 71.2312 39.872 71.2632 40.336C71.2952 40.8 71.3232 41.268 71.3472 41.74C71.3712 42.204 71.3832 42.64 71.3832 43.048V46H70.1592ZM77.6905 46V37.24H82.8385V38.392H78.9625V40.876H82.4185V42.016H78.9625V44.848H82.8385V46H77.6905ZM87.3578 46.12C87.0378 46.12 86.7818 46.028 86.5898 45.844C86.3978 45.652 86.3018 45.396 86.3018 45.076C86.3018 44.748 86.3978 44.488 86.5898 44.296C86.7818 44.096 87.0378 43.996 87.3578 43.996C87.6858 43.996 87.9418 44.096 88.1258 44.296C88.3178 44.488 88.4138 44.748 88.4138 45.076C88.4138 45.396 88.3178 45.652 88.1258 45.844C87.9418 46.028 87.6858 46.12 87.3578 46.12ZM91.6611 46V39.4H92.7411V40.24H92.9811L92.8011 40.492C92.8011 40.124 92.9011 39.832 93.1011 39.616C93.3011 39.392 93.5691 39.28 93.9051 39.28C94.2651 39.28 94.5411 39.42 94.7331 39.7C94.9331 39.98 95.0331 40.364 95.0331 40.852L94.7451 40.24H95.2011L95.0091 40.492C95.0091 40.124 95.1091 39.832 95.3091 39.616C95.5171 39.392 95.7931 39.28 96.1371 39.28C96.5451 39.28 96.8651 39.436 97.0971 39.748C97.3291 40.052 97.4451 40.46 97.4451 40.972V46H96.2931V41.008C96.2931 40.76 96.2371 40.568 96.1251 40.432C96.0211 40.296 95.8691 40.228 95.6691 40.228C95.4691 40.228 95.3131 40.296 95.2011 40.432C95.0971 40.56 95.0451 40.748 95.0451 40.996V46H94.0731V41.008C94.0731 40.752 94.0171 40.56 93.9051 40.432C93.7931 40.296 93.6331 40.228 93.4251 40.228C93.2251 40.228 93.0731 40.296 92.9691 40.432C92.8731 40.56 92.8251 40.748 92.8251 40.996V46H91.6611ZM101.28 46.12C100.616 46.12 100.084 45.896 99.6844 45.448C99.2844 45 99.0844 44.396 99.0844 43.636V41.776C99.0844 41.008 99.2844 40.4 99.6844 39.952C100.084 39.504 100.616 39.28 101.28 39.28C101.824 39.28 102.256 39.432 102.576 39.736C102.896 40.032 103.056 40.44 103.056 40.96L102.78 40.66H103.08L103.044 39.124V37.24H104.34V46H103.056V44.74H102.78L103.056 44.44C103.056 44.96 102.896 45.372 102.576 45.676C102.256 45.972 101.824 46.12 101.28 46.12ZM101.724 44.992C102.132 44.992 102.452 44.868 102.684 44.62C102.924 44.364 103.044 44.012 103.044 43.564V41.836C103.044 41.388 102.924 41.04 102.684 40.792C102.452 40.536 102.132 40.408 101.724 40.408C101.3 40.408 100.968 40.532 100.728 40.78C100.488 41.02 100.368 41.372 100.368 41.836V43.564C100.368 44.028 100.488 44.384 100.728 44.632C100.968 44.872 101.3 44.992 101.724 44.992ZM22 63.6V47.76H23.2V54.96H26.44V56.16H23.2V63.6H22ZM25.9553 56.16V54.96H33.6353V56.16H25.9553ZM44.6539 60.12C44.1099 60.12 43.6779 59.972 43.3579 59.676C43.0379 59.372 42.8779 58.96 42.8779 58.44L43.1539 58.74H42.8779V60H41.5939V51.24H42.8899V53.124L42.8539 54.66H43.1539L42.8779 54.96C42.8779 54.44 43.0379 54.032 43.3579 53.736C43.6859 53.432 44.1179 53.28 44.6539 53.28C45.3179 53.28 45.8499 53.504 46.2499 53.952C46.6499 54.4 46.8499 55.008 46.8499 55.776V57.636C46.8499 58.396 46.6499 59 46.2499 59.448C45.8499 59.896 45.3179 60.12 44.6539 60.12ZM44.2099 58.992C44.6339 58.992 44.9659 58.872 45.2059 58.632C45.4459 58.384 45.5659 58.028 45.5659 57.564V55.836C45.5659 55.372 45.4459 55.02 45.2059 54.78C44.9659 54.532 44.6339 54.408 44.2099 54.408C43.8019 54.408 43.4779 54.536 43.2379 54.792C43.0059 55.04 42.8899 55.388 42.8899 55.836V57.564C42.8899 58.012 43.0059 58.364 43.2379 58.62C43.4779 58.868 43.8019 58.992 44.2099 58.992ZM50.7213 60.12C50.0333 60.12 49.4893 59.944 49.0893 59.592C48.6973 59.232 48.5013 58.744 48.5013 58.128C48.5013 57.504 48.7093 57.016 49.1253 56.664C49.5493 56.304 50.1293 56.124 50.8652 56.124H52.7013V55.512C52.7013 55.152 52.5893 54.872 52.3653 54.672C52.1413 54.472 51.8253 54.372 51.4173 54.372C51.0573 54.372 50.7573 54.452 50.5173 54.612C50.2773 54.764 50.1373 54.968 50.0973 55.224H48.8253C48.8973 54.632 49.1693 54.16 49.6413 53.808C50.1213 53.456 50.7253 53.28 51.4533 53.28C52.2373 53.28 52.8573 53.48 53.3133 53.88C53.7693 54.272 53.9973 54.808 53.9973 55.488V60H52.7373V58.788H52.5213L52.7373 58.548C52.7373 59.028 52.5533 59.412 52.1853 59.7C51.8173 59.98 51.3293 60.12 50.7213 60.12ZM51.1053 59.124C51.5693 59.124 51.9493 59.008 52.2453 58.776C52.5493 58.536 52.7013 58.232 52.7013 57.864V57H50.8893C50.5533 57 50.2853 57.092 50.0853 57.276C49.8933 57.46 49.7973 57.712 49.7973 58.032C49.7973 58.368 49.9133 58.636 50.1453 58.836C50.3773 59.028 50.6973 59.124 51.1053 59.124ZM56.2006 60V53.4H57.4486V54.66H57.7606L57.3646 55.44C57.3646 54.728 57.5206 54.192 57.8326 53.832C58.1446 53.464 58.6086 53.28 59.2246 53.28C59.9286 53.28 60.4846 53.5 60.8926 53.94C61.3086 54.372 61.5166 54.968 61.5166 55.728V56.172H60.1846V55.836C60.1846 55.364 60.0646 55.004 59.8246 54.756C59.5926 54.5 59.2646 54.372 58.8406 54.372C58.4166 54.372 58.0846 54.5 57.8446 54.756C57.6126 55.012 57.4966 55.372 57.4966 55.836V60H56.2006ZM65.7719 60.12C65.4519 60.12 65.1959 60.028 65.0039 59.844C64.8119 59.652 64.7159 59.396 64.7159 59.076C64.7159 58.748 64.8119 58.488 65.0039 58.296C65.1959 58.096 65.4519 57.996 65.7719 57.996C66.0999 57.996 66.3559 58.096 66.5399 58.296C66.7319 58.488 66.8279 58.748 66.8279 59.076C66.8279 59.396 66.7319 59.652 66.5399 59.844C66.3559 60.028 66.0999 60.12 65.7719 60.12ZM73.0152 60.12C72.4712 60.12 71.9912 60.02 71.5752 59.82C71.1672 59.612 70.8512 59.316 70.6272 58.932C70.4112 58.54 70.3032 58.084 70.3032 57.564V55.836C70.3032 55.308 70.4112 54.852 70.6272 54.468C70.8512 54.084 71.1672 53.792 71.5752 53.592C71.9912 53.384 72.4712 53.28 73.0152 53.28C73.8072 53.28 74.4432 53.488 74.9232 53.904C75.4032 54.32 75.6552 54.888 75.6792 55.608H74.3832C74.3592 55.232 74.2272 54.94 73.9872 54.732C73.7472 54.524 73.4232 54.42 73.0152 54.42C72.5752 54.42 72.2272 54.544 71.9712 54.792C71.7152 55.032 71.5872 55.376 71.5872 55.824V57.564C71.5872 58.012 71.7152 58.36 71.9712 58.608C72.2272 58.856 72.5752 58.98 73.0152 58.98C73.4232 58.98 73.7472 58.876 73.9872 58.668C74.2272 58.46 74.3592 58.168 74.3832 57.792H75.6792C75.6552 58.512 75.4032 59.08 74.9232 59.496C74.4432 59.912 73.8072 60.12 73.0152 60.12ZM22 77.6V61.76H23.2V68.96H26.44V70.16H23.2V77.6H22ZM25.9553 70.16V68.96H33.6353V70.16H25.9553ZM44.1739 74.12C43.3819 74.12 42.7499 73.892 42.2779 73.436C41.8059 72.972 41.5699 72.344 41.5699 71.552V67.4H42.8659V71.552C42.8659 72.008 42.9819 72.364 43.2139 72.62C43.4459 72.868 43.7659 72.992 44.1739 72.992C44.5899 72.992 44.9139 72.868 45.1459 72.62C45.3859 72.364 45.5059 72.008 45.5059 71.552V67.4H46.8019V71.552C46.8019 72.344 46.5619 72.972 46.0819 73.436C45.6099 73.892 44.9739 74.12 44.1739 74.12ZM52.1013 74C51.5013 74 51.0333 73.836 50.6973 73.508C50.3613 73.18 50.1933 72.724 50.1933 72.14V68.576H48.3693V67.4H50.1933V65.54H51.4893V67.4H54.0693V68.576H51.4893V72.14C51.4893 72.596 51.7093 72.824 52.1493 72.824H53.9492V74H52.1013ZM55.9486 74V72.824H58.2646V68.576H56.2486V67.4H59.5246V72.824H61.6486V74H55.9486ZM58.7686 66.26C58.4886 66.26 58.2646 66.188 58.0966 66.044C57.9286 65.892 57.8446 65.692 57.8446 65.444C57.8446 65.188 57.9286 64.988 58.0966 64.844C58.2646 64.692 58.4886 64.616 58.7686 64.616C59.0486 64.616 59.2726 64.692 59.4406 64.844C59.6086 64.988 59.6926 65.188 59.6926 65.444C59.6926 65.692 59.6086 65.892 59.4406 66.044C59.2726 66.188 59.0486 66.26 58.7686 66.26ZM66.7199 74C66.3119 74 65.9559 73.92 65.6519 73.76C65.3479 73.592 65.1079 73.356 64.9319 73.052C64.7639 72.748 64.6799 72.396 64.6799 71.996V66.416H62.5199V65.24H65.9759V71.996C65.9759 72.252 66.0479 72.456 66.1919 72.608C66.3359 72.752 66.5319 72.824 66.7799 72.824H68.8199V74H66.7199ZM72.7392 74.108C72.2672 74.108 71.8512 74.032 71.4912 73.88C71.1392 73.728 70.8592 73.52 70.6512 73.256C70.4512 72.984 70.3352 72.664 70.3032 72.296H71.5992C71.6312 72.512 71.7472 72.688 71.9472 72.824C72.1472 72.952 72.4112 73.016 72.7392 73.016H73.2552C73.6472 73.016 73.9432 72.936 74.1432 72.776C74.3432 72.616 74.4432 72.404 74.4432 72.14C74.4432 71.884 74.3512 71.684 74.1672 71.54C73.9912 71.388 73.7272 71.288 73.3752 71.24L72.5232 71.108C71.8192 70.996 71.2992 70.796 70.9632 70.508C70.6352 70.212 70.4712 69.776 70.4712 69.2C70.4712 68.592 70.6672 68.124 71.0592 67.796C71.4592 67.46 72.0472 67.292 72.8232 67.292H73.2792C73.9672 67.292 74.5152 67.452 74.9232 67.772C75.3392 68.084 75.5752 68.504 75.6312 69.032H74.3352C74.3032 68.84 74.1952 68.684 74.0112 68.564C73.8352 68.444 73.5912 68.384 73.2792 68.384H72.8232C72.4472 68.384 72.1712 68.456 71.9952 68.6C71.8272 68.736 71.7432 68.94 71.7432 69.212C71.7432 69.452 71.8192 69.632 71.9712 69.752C72.1232 69.872 72.3592 69.956 72.6792 70.004L73.5552 70.148C74.2992 70.252 74.8432 70.46 75.1872 70.772C75.5392 71.076 75.7152 71.52 75.7152 72.104C75.7152 72.736 75.5072 73.228 75.0912 73.58C74.6832 73.932 74.0712 74.108 73.2552 74.108H72.7392ZM22 91.6V75.76H23.2V91.6H22ZM50.7812 91.6V75.76H51.9813V82.96H55.2213V84.16H51.9813V91.6H50.7812ZM54.7366 84.16V82.96H62.4166V84.16H54.7366ZM71.9232 88V83.272H70.0512V82.096H71.9232V81.028C71.9232 80.476 72.0992 80.04 72.4512 79.72C72.8032 79.4 73.2832 79.24 73.8912 79.24H75.8232V80.392H73.9152C73.6912 80.392 73.5152 80.448 73.3872 80.56C73.2672 80.672 73.2072 80.832 73.2072 81.04V82.096H75.8232V83.272H73.2072V88H71.9232ZM80.1625 88.108C79.6185 88.108 79.1465 88.004 78.7465 87.796C78.3465 87.588 78.0385 87.292 77.8225 86.908C77.6065 86.524 77.4985 86.072 77.4985 85.552V83.848C77.4985 83.32 77.6065 82.868 77.8225 82.492C78.0385 82.108 78.3465 81.812 78.7465 81.604C79.1465 81.396 79.6185 81.292 80.1625 81.292C80.7065 81.292 81.1785 81.396 81.5785 81.604C81.9785 81.812 82.2865 82.108 82.5025 82.492C82.7185 82.868 82.8265 83.32 82.8265 83.848V85.552C82.8265 86.072 82.7185 86.524 82.5025 86.908C82.2865 87.292 81.9785 87.588 81.5785 87.796C81.1785 88.004 80.7065 88.108 80.1625 88.108ZM80.1625 86.968C80.6025 86.968 80.9425 86.848 81.1825 86.608C81.4225 86.36 81.5425 86.008 81.5425 85.552V83.848C81.5425 83.384 81.4225 83.032 81.1825 82.792C80.9425 82.552 80.6025 82.432 80.1625 82.432C79.7305 82.432 79.3905 82.552 79.1425 82.792C78.9025 83.032 78.7825 83.384 78.7825 83.848V85.552C78.7825 86.008 78.9025 86.36 79.1425 86.608C79.3905 86.848 79.7305 86.968 80.1625 86.968ZM87.3578 88.108C86.8138 88.108 86.3418 88.004 85.9418 87.796C85.5418 87.588 85.2338 87.292 85.0178 86.908C84.8018 86.524 84.6938 86.072 84.6938 85.552V83.848C84.6938 83.32 84.8018 82.868 85.0178 82.492C85.2338 82.108 85.5418 81.812 85.9418 81.604C86.3418 81.396 86.8138 81.292 87.3578 81.292C87.9018 81.292 88.3738 81.396 88.7738 81.604C89.1738 81.812 89.4818 82.108 89.6978 82.492C89.9138 82.868 90.0218 83.32 90.0218 83.848V85.552C90.0218 86.072 89.9138 86.524 89.6978 86.908C89.4818 87.292 89.1738 87.588 88.7738 87.796C88.3738 88.004 87.9018 88.108 87.3578 88.108ZM87.3578 86.968C87.7978 86.968 88.1378 86.848 88.3778 86.608C88.6178 86.36 88.7378 86.008 88.7378 85.552V83.848C88.7378 83.384 88.6178 83.032 88.3778 82.792C88.1378 82.552 87.7978 82.432 87.3578 82.432C86.9258 82.432 86.5858 82.552 86.3378 82.792C86.0978 83.032 85.9778 83.384 85.9778 83.848V85.552C85.9778 86.008 86.0978 86.36 86.3378 86.608C86.5858 86.848 86.9258 86.968 87.3578 86.968ZM94.5531 88.12C94.2331 88.12 93.9771 88.028 93.7851 87.844C93.5931 87.652 93.4971 87.396 93.4971 87.076C93.4971 86.748 93.5931 86.488 93.7851 86.296C93.9771 86.096 94.2331 85.996 94.5531 85.996C94.8811 85.996 95.1371 86.096 95.3211 86.296C95.5131 86.488 95.6091 86.748 95.6091 87.076C95.6091 87.396 95.5131 87.652 95.3211 87.844C95.1371 88.028 94.8811 88.12 94.5531 88.12ZM101.796 88.12C101.252 88.12 100.772 88.02 100.356 87.82C99.9484 87.612 99.6324 87.316 99.4084 86.932C99.1924 86.54 99.0844 86.084 99.0844 85.564V83.836C99.0844 83.308 99.1924 82.852 99.4084 82.468C99.6324 82.084 99.9484 81.792 100.356 81.592C100.772 81.384 101.252 81.28 101.796 81.28C102.588 81.28 103.224 81.488 103.704 81.904C104.184 82.32 104.436 82.888 104.46 83.608H103.164C103.14 83.232 103.008 82.94 102.768 82.732C102.528 82.524 102.204 82.42 101.796 82.42C101.356 82.42 101.008 82.544 100.752 82.792C100.496 83.032 100.368 83.376 100.368 83.824V85.564C100.368 86.012 100.496 86.36 100.752 86.608C101.008 86.856 101.356 86.98 101.796 86.98C102.204 86.98 102.528 86.876 102.768 86.668C103.008 86.46 103.14 86.168 103.164 85.792H104.46C104.436 86.512 104.184 87.08 103.704 87.496C103.224 87.912 102.588 88.12 101.796 88.12ZM22 98.16V89.76H23.2V96.96H26.44V98.16H22ZM25.9553 98.16V96.96H33.6353V98.16H25.9553ZM45.3166 102.12C44.9966 102.12 44.7406 102.028 44.5486 101.844C44.3566 101.652 44.2606 101.396 44.2606 101.076C44.2606 100.748 44.3566 100.488 44.5486 100.296C44.7406 100.096 44.9966 99.996 45.3166 99.996C45.6446 99.996 45.9046 100.096 46.0966 100.296C46.2806 100.488 46.3726 100.748 46.3726 101.076C46.3726 101.396 46.2806 101.652 46.0966 101.844C45.9046 102.028 45.6446 102.12 45.3166 102.12ZM51.3886 102.12C51.0686 102.12 50.8126 102.028 50.6206 101.844C50.4286 101.652 50.3326 101.396 50.3326 101.076C50.3326 100.748 50.4286 100.488 50.6206 100.296C50.8126 100.096 51.0686 99.996 51.3886 99.996C51.7166 99.996 51.9766 100.096 52.1686 100.296C52.3526 100.488 52.4446 100.748 52.4446 101.076C52.4446 101.396 52.3526 101.652 52.1686 101.844C51.9766 102.028 51.7166 102.12 51.3886 102.12ZM57.4486 102.12C57.1286 102.12 56.8726 102.028 56.6806 101.844C56.4886 101.652 56.3926 101.396 56.3926 101.076C56.3926 100.748 56.4886 100.488 56.6806 100.296C56.8726 100.096 57.1286 99.996 57.4486 99.996C57.7766 99.996 58.0326 100.096 58.2166 100.296C58.4086 100.488 58.5046 100.748 58.5046 101.076C58.5046 101.396 58.4086 101.652 58.2166 101.844C58.0326 102.028 57.7766 102.12 57.4486 102.12Z" fill="black"/>
<defs>
<clipPath id="clip0_539_511">
<rect width="13" height="16" fill="white" transform="translate(111 7.5)"/>
</clipPath>
</defs>
</svg>
