<?xml version="1.0" encoding="utf-8"?>
<!-- Generator: Adobe Illustrator 24.3.0, SVG Export Plug-In . SVG Version: 6.00 Build 0)  -->
<svg version="1.1" xmlns="http://www.w3.org/2000/svg" xmlns:xlink="http://www.w3.org/1999/xlink" x="0px" y="0px"
	 viewBox="0 0 576 504" style="enable-background:new 0 0 576 504;" xml:space="preserve">
<style type="text/css">
	.st0{display:none;}
	.st1{display:inline;fill:#8A2433;}
	.st2{display:inline;fill:#231F20;}
	.st3{display:inline;fill:#6F625A;}
	.st4{display:inline;fill:#C8C7C7;}
	.st5{display:inline;fill:#800000;}
	.st6{display:inline;}
	.st7{display:inline;fill:#737373;}
	.st8{display:inline;fill:#D9D9D9;}
	.st9{fill:#FFFFFF;}
	.st10{fill:#D9D9D9;}
</style>
<g id="Background" class="st0">
	<rect class="st3" width="576" height="504"/>
	<rect class="st2" width="576" height="504"/>
	<rect class="st5" width="576" height="504"/>
</g>
<g id="phoenix">
	<path class="st10" d="M296.03,69.34c0,0,2.79-3.02,2.78-5.18c-0.01-2.93-2.76-5.07-2.76-5.07c2.37,0.68,7.99,3.86,10.01,5.18
		L296.03,69.34z M313.7,64v-0.39c-6.17-0.89-11.02-5.22-16.68-7.35c-7.81-2.96-16.1,3.08-16.1,4.04c0,2.11,2.22,3.18,8.54-0.79
		c-4.95,5.74,0.67,10.41,0.67,10.41c-2.06-0.31-5-1-6.88-2.08c-0.38,2.08,2.47,2.83,3.83,3.73C297.58,75.89,304.48,65.78,313.7,64
		 M484.53,305.15c-2.92,14.36-7.87,27.66-16.5,40.03c-6.04,8.76-8.49-8.28-3.29-24.78C472.13,317.45,479.51,311.71,484.53,305.15
		 M476.31,308.03c-19.27,19.06-48.17,12.16-70.95,22.36c-20.64,7.53-35.59,26.65-57.23,31.47c-6.37,2.06-7.42,5.24-3.36,5.13
		c2.38-0.07,15.57,13.72,36.68,3.09c7.04-3.55,28.94-15.76,32.64-16.46c-11.85,11.3-17.8,21.39-28.39,27.36
		c-6.48,3.64-32.88,13.11-59.22,7.99c-11.66-2.28-20.65,8.5-17.68,8.25c6.25-1.67,13.25-0.82,17.46,4.71
		c7.65,5.99,18.72,13.47,28.24,2.33c3.17-3.69,18.29-11.55,32.5,2.89c-15.12-0.79-13.62,26.42-42.25,23.23
		c-10.61-0.07-34.03-24.35-40.69-16.85c-11.84,13.32,25.43,25.95,9.29,42.71c-14.58,15.13-31.99-12.05-31.99-12.05
		c9.1,3.82,25.88,6.27,18.49-8.52c-2.93-5.88-8.51-11.17-8.51-22.04c-1.27-5.41-34.64,43.01-56.7,21.13
		c-8.67-8.6-26.23-27.45-42.14-34.62c42.12-3.59,48.54,13.29,50.56,16c13.48,18.2,25.93-0.28,28.79-3.52
		c4.39-5.01,10.6-11.89,8.4-12.93c-16.34-7.76-35.01-9.41-48.95-3c29.85-41.08,53.08-2.61,53.08-2.62
		c3.27,2.04-0.84-24.36-30.36-25.83c-18.44-0.91-34.67,15.71-47.38,15.69c-10.34-0.02-41.69-21.21-49.06-40.04
		c18.24,13.66,41.51,21.5,56,12.85c27.26-16.28,61.6,8.26,63.23,5.33c-7.62-5.97-24.96-29.25-71.78-15.97
		c-18.16,10.44-25.82-7.75-36.97-8.06c18.97-16.85,32.12-8.28,38.75-7.76c1.58,0-7.91-7.81-14.56-8.52
		c-51.73-5.38-84.5-19.63-84.5-19.63c-0.27,0,4.31-10.44,26.54-2.91c0,0-19.94-12.22-19.77-27.93c0.65-9.68,5.33-20.05-2.07-28.12
		c30.02-1.23,8.7,40.69,29.78,51.49c0.45,0.18-6.21-10.02,3.17-17.91c4.36,12.31,15.07,18.68,22.61,20.67
		c1.77-0.97,3.95-4.74,3.95-4.74c-7.93-13.13-8.97-28.44-6.84-45.96l0.32-0.18c1.7,0.08,4.59,6.03,6.62,10.39
		c4.38,9.43,4.27,22.99,13,34.17c4.83,6.16,7.82,12.31,12.16,15.3c1.87-4.37,0.48-11.88,0.2-13.87c-0.98-7.13-5.44-19.6,6.71-30.61
		c5.69,16.44,13.42,11.67,14.47,19.55c1.45,11.04,0.97,9.28-0.16,17.76c0.58,11.69,11.18,14.97,20.59,22.43
		c21.22,11.56,35.31,17.82,44.54,32.63c4.51-24.99-62.84-29.99-54.16-78.2c-0.9-19.26,2.4-20.87-11.23-32.63
		c27.03,0.79,41.75,45.21,43.22,53.31c2.71,14.9,11.74,15.67,24.14,35.1c1.78,0.65-22.18-51.75,6.39-96.62
		c0,0,9.63,23.31,5.09,38.59c-2.74,9.2-0.2,19.39,0.31,25.16c0.52,5.88-1.17-21.26,19.23-35.32c1.27,10.27,11.1,26.19,1.78,43.24
		c-11.34,20.75-12.16,13.29-12.33,38.81c1.03-0.44,3.96-17.59,11.74-27.32c16.43-20.58,4.7-31.64,20.74-49.47
		c1.27,8.91,3.55,5.38,4.5,13.33c2.15,17.82-16.43,37.31-12.33,36.72c4.73-0.67,12.33-4.79,14.87-18.31c0,0,6.85,12.35,0.59,16.46
		c-11.34,7.45-13.7,15.47-11.94,24.48c9.1-10.87,21.52-22.92,19.37-38.4c1.03-9.35,11.15-13.13,13.16-34.84
		c0.34-3.6,3.93-7.97,7.52-9.88c-1.57,12.2,7.89,24.81-2.87,39.73c2.45,1.32,11.55-11.64,24.85-6.92
		c-26.7,4.82-18.91,33.78-39.36,47.18c-6.16,4.04-5.11,8.58-6.96,9.09c18.26-1.03,32.34-22.81,34.78-24.48
		c18.36-12.43,22.38-14.33,29.72-34.48c2.87-7.66,0.78-11.05,10.96-21.38c4.46,10.19-2.02,31.31-3.57,35.87
		c-3.28,9.73-14.83,18.14-12.38,18.14c49.21-21.74,48.59-36.34,60.36-51.92c3.53-5.95,21.04-16.27,27.59-17.23
		c-1.6,3.25-8.41,8.71-8.72,14.61c-0.6,10.89-4.11,17.53-9.61,26.28c3.06,3.79,8.93-7.18,14.94-1.67
		C486.02,293.97,482.48,302.83,476.31,308.03 M431.25,292.57c1.42-5.11,1.43-8.63,2.09-13.14c0.29-1.93,0.34-1.7,0.43-3.33
		c0.03-0.54,13.91,11.56,14.68,12.06c-3.48,4.37-6.46,5.93-9.78,9.03C436.31,295.17,431.12,293.06,431.25,292.57 M435.46,300.12
		c-6.41,5.64-10.61,7.64-9.21,4.85c1.56-3.12,2.72-5.77,3.59-8.1C430.14,296.08,435.46,300.12,435.46,300.12 M498.35,245.47
		c-5.87,1.53-21.34,7.72-25.07,13.8c1.98-33.49-8.82-66.39-12.26-74.33c-6.71-15.48,2.99,36.02,3.66,47.88
		c0.02,0.53-55.51-71.46-21.99-16.02c8.69,14.37,22.26,23.75,22.27,23.99c0.23,10-0.44,17.35-2.34,22.72
		c-3.41,2.73-75.61-96.2-35.7-27.68c4.95,8.49,33.9,34.21,33.66,34.72c-1.84,3.9-5.09,9.59-9.58,13.78
		c-0.76-0.76-16.65-12.5-16.76-13.21c-1.2-7.64-1.25-14.87-10.68-9.45c0,0-35.57-41.46-19.09-12.41
		c7.2,12.71,11.92,14.11,13.84,16.37c0,0-5.52,7.49-7.29,15.44c-0.71,3.19-30.84-33.44-19.02-10.43
		c3.79,7.37,17.56,15.42,17.41,15.94c-1.41,4.79-2.85,9.44-4.35,12.46c-1.9,3.82-28.34,24.93-28.31,24.91
		c0-0.01,5.17-16.73,16.41-24.91c6.42-4.71,6.44-3.68,10.69-6.35c-0.09-2.47-2.47-6.5-5.55-7.58c-3.86-1.37-16.38,0.91-16.38,0.91
		c1.17-6.27-4.31-19.79-4.24-34.66c-4.71,0.46-12.98,7.76-14.99,11.91c-1.45,24.63-6.79,17.26-11.79,34.98
		c-5.44-7.43,0.38-18.11-4.95-25.06c-7.34-9.57-8.45-16.02-9.53-27.79c1.72-0.95,9.2-9.23,2.39-26.6
		c-1.11-27.3,11.07-37.73-10.71-56.83c1.84-0.59,3.14-14.27,3.14-14.29c16.05,8.57,12.87-9.92,19.12-13.55
		c9.93-5.77,8.12-11.75,3.66-19.2c28.39,8.08-1.28,27.51,11.57,27.93c9.32,0.28,15.56-2.08,19.61-8.36
		c4.31-6.62-0.75-10.7,11.3-21.45c1.21-1.08,4.39-8.25-5.15-10.22c-2.09-0.44,0.01-8.62,0.01-8.62c-7.65,6.48-10.05,15.6-22.34,9.83
		c-6.29-2.97-10.37-0.05-12.95,1.19c0,0-1.31-5.14,3.9-6.88c13.45-4.53,16.77-9.9,16.04-12.84c-1.82-7-2.37,0-1.98-7.37
		c0.17-2.93,3.57-6.91,6.39-10.32c9.12-11.02,15.58-6.89,17.91-5.91c5.3-4.11,6.23-3.82,11.17-5.77c8.44-3.33,26.75,2.2,36.98,6.95
		c4.96,2.24,10.88,3.6,16.68,2.32c-0.06,2.99-2.15,4.6-4.23,5.2c-3.19,1-7,0-6.75,2.34c0.15,1.37,4.52,1.61,7.25,2.35
		c15.16,4.15,34.79,17.75,21.9,14.88c-1.52-0.34,9.29,8.09,17.45,19.05l28.91,28.12c-1.33,1.6-11.47,0.15-43.56-29.97
		c-4.57,4.08,39.04,36.99,57.04,71.92c-1.55,1.09-23.99-7.09-32.08-15.45c-12.47-12.91-26.79-45.73-32.68-40.93
		c-0.71,0.27,23.7,38.32,35.76,60.89c6.09,11.42,11.09,27.79,11.51,40.11c1.94,60.78-7.21,56.11-7.2,56.12
		c-14.22-47.92-20.88-103.54-41.63-129.21C466.57,140.6,497.04,195.75,498.35,245.47 M327.67,51.02c1.05,6.27-4.75,7.83-4.73,7.83
		c9.02,2.11,13.33-3.26,15.09-6.66c3.46,14.42-11.05,15.23-15.58,16.1c-0.01,0,7.36,2.12,7.73,6.92
		c0.96,12.19,8.8,11.15,10.48,10.19c-0.27,1.48-2.69,8.84-11.5,2.19c-1.49,1.47,2.4,3.75,3.17,9.81c0.99,7.65,0.75,14.75,9.58,19.42
		c-5.41,4.31-11.79-6.91-12.34-5.57c-0.63,1.5,7.52,5.62-1.45,26.78c-4.09-2.36-1.81-1.91-6.56-7.54c-3.62-3.04-5.05-3.73-2.02,1.28
		c5.29,6.62,6.54,21.76,4.71,25.83c-4.36-1.9-3.24-5.38-8.38-10.13c-0.47,2.02,1.58,12.05,6.89,16.86
		c9.18,8.3,12.44,18.32,12.61,20.3c0.73,7.54-1.64,17.48-2.53,27.2c-4.41-0.64-8.15-13.16-9.22-12.45
		c-1.3,0.85,0.56,12.26,8.86,20.03c4.02,11.76,2.41,18.08,1.34,18.51c-1.42,0.61-5.89-12.03-8.33-9.83
		c11.83,30.12,3.55,40.62,0.43,49.9c-2.44-9.52-3.68-16.64-6.74-27.41c-6.45,5.07-8,12.58-15.87,19.45
		c0-12.29-7.09-41.95-12.72-48.86c-0.26-0.32-10.16,26.59-14.67,38.56c-5.86,15.51-6.77,34.89,0,50
		c-14.6-20.79-16.17-59.5-3.57-64.71c1.09-2.77-0.76-11.88-3.57-10.75c-0.81,4.46-0.27,8.26-3.95,12.61
		c-9.67-2.84-5.26-14.65-4.39-18.57c12.54-15.06,4.7-18.54,4.12-18.15c-1.36,3.45-2.55,7.68-6.37,9.25
		c-8.05-13.85-2.89-35.58,12.39-51.82c0.64-6.06-6.84,4.52-11.71,4.15c-1.27-11.68,2.96-31.95,24.54-32.69
		c-4.12-1.21-6.32-1.96-7.32-5.4c6.53-0.97,26.98-2.53,23.61-18.69c-1.94,1.95-2.56,4.85-7.89,8.09c-3.59,2.19-7.49,2.38-9.52-0.78
		c9.49-3.14,6.36-14.71-6.03-11.31c-3.79,1.04-9.35-2.93-9.62-7.33c2.76,2.76,8.35,0.72,11.58-1.39
		c13.94-9.07,22.45,4.07,24.33,6.89c0.56,0,6.26-13.13-13.54-16.66c-1.65-4.62-6.18-12.77-19.61-11.75
		c-4.43-15.64-17.82-7.93-17.38-0.85c-14.23-10.49,0.25-23.74,6-25.78c3.98,0.33,3.1,12.96,10.1,10.83c1.69-0.5-5.44-8.7-2.71-12.42
		c6.42-3.67,6.27,4.7,9.44,1.58c1.57-5.49,7.87-8.56,13.05-9.14C302.41,42.88,313.72,58.84,327.67,51.02 M231,89.36
		c-4.29-7.32,5.12-14.32,5.12-14.32c-0.28,20.6,26.02,6.46,39.75,13.01c3.3,1.52,5.62,4.42,6.98,7.48
		C268.08,85.32,240.79,106.09,231,89.36 M159.91,263.81c0.12,7.06-0.38,12.28,1.67,19.46c3.33,10.82,1.66,7.49-2.88,3.77
		c-3.61-4.02-6.99-7.33-8.72-12.02C149.56,271.68,152.23,271.49,159.91,263.81 M106.97,118.2l-0.41-0.4
		c-0.48,0-34.18,21.28-56.07,11.06c16.31-9.03,72.8-44.97,88.26-55.17c7.29,1.57,10.24-1.06,12.57-2.68
		c-5.9,0.36-25.47,3.42-15.58-14.11c3.8,15.72,31.25,1.25,41.1-1.02c27.46-6.32,27.26,23.06,24.92,35.2
		c-0.88,4.53,8.41,7.74,12.99,7.09c-7.87,19.42-21.31,1.12-22.91,8.52c-0.65,3-9.65,5.36-9.61,12.82c0.06,10.19,4.03,4.62,4.4,12.52
		c0.4,7.65-3.26,1.7-2.43,9.97c1.32,13.14,23.03-1.75,32,1.81c4.49,1.77,7.47,5.8,11.84,5c1.28-1.05,0.7-6.02,0.5-7.79
		c-0.46-4.18-8.17-4.66-11.76-10.36c-3.13-4.97,3.55-19.92,7.16-24.32c5.18,24.68,28.29,16.94,31.74,42.9
		c2.18,7.34-7.94,15.5,0.26,27.45c-6.09,5.92-13.42,34.02-0.66,47.22c-2.17,5.97-5.01,19.77,6.35,27.82
		c-3.81,8.14-2.94,18.1,0.27,28.23c-7.07,0.03-5.66-39.7-48.03-40.97c-0.95-0.3-1.18,4.5,0.04,6.66
		c5.08,8.93,11.89,8.41,10.43,29.42c-0.5,7.2-4.71-1.25-6.96-3.24c-5.13-4.54-9.1-5.15-11.33-19.93
		c-17.22,13.51-15.53,29.88-14.45,38.19c0.01,0.02-3.8-10.37-8.15-21.02c-0.23-0.57,17.48-21.91,20.3-26.98
		c35.75-64.42-23.08,20.83-23.21,20.54c-3.17-7.34-5.93-13.67-7.8-15.67c0.45-0.89,10.27-11.85,14.71-21.1
		c27.65-57.65-16.43,19.2-18,17.78c-3.33-3-6.09-6.76-8.2-5.41c-0.5,8.86-2.61,7.65-2,16.69c-4.61,6.16-14.49,15.84-21.41,20.63
		c0,0-1.72-16-1.26-16.56c3.47-4.24,17.07-18.82,19.85-23.19c45.31-71.25-21.21,17.16-21.33,16.4c-0.47-2.81-4.12-7.47-8-11.44
		c0,0,14.69-20.05,18.31-27.49c27.57-56.76-22.16,25.15-22.71,24.85c-1.19-0.63-1.32-0.61-2.7-1.09c-1.38-0.47,1.53-16.34,3.44-25.9
		c3.73-18.91-6.28-3.67-9,26.29c-2.56,0.41-8.76,1.05-11.11,3.18c1.52,8,3.41,1.85,6.76,9.54c4,9.2-5.58,24.29,2.76,35.34
		c3.23,4.27,3.41,3.55,2.77,6.35c-5.13-0.37-8.25-0.47-11.49,3.97c-6.31-28.7-6.11-42.52-4.63-71.69
		c0.66-13.26,5.01-33.33,3.02-33.71c-1.89-0.36-31.91,77.05-39.16,92.22c-12.66-4.28,7.88-71.27,33.98-103.52
		c2.46-10.26-13.68,10.41-23.32,18.63c-8.84,7.54-20.04,17.38-32.22,14.01c15.66-16.58,51.56-47.6,55.55-55.35
		c3.35-6.65-24.49,20.68-53.9,10.52C62.48,156.73,106.88,134.03,106.97,118.2 M106.66,306.7c4.92,3.34,10.7,4.81,16.01,7.08
		c6.57,17.21,0.16,34.13-3.53,27.11C112.67,328.59,110.12,318.38,106.66,306.7"/>
</g>
<g id="TM" class="st0">
	<g class="st6">
		<path class="st10" d="M406.56,401.89h-2.48v-11.72h-4.43v-2.28H411v2.28h-4.43V401.89z"/>
		<path class="st10" d="M420.49,398.45h-0.08l-4.38-6.56v10h-2.44v-14h2.62l4.25,6.62l4.25-6.62h2.62v14h-2.44v-10.04L420.49,398.45
			z"/>
	</g>
</g>
</svg>
