<?xml version="1.0" encoding="utf-8"?>
<!-- Generator: Adobe Illustrator 24.3.0, SVG Export Plug-In . SVG Version: 6.00 Build 0)  -->
<svg version="1.1" xmlns="http://www.w3.org/2000/svg" xmlns:xlink="http://www.w3.org/1999/xlink" x="0px" y="0px"
	 viewBox="0 0 598 598" style="enable-background:new 0 0 598 598;" xml:space="preserve">
<style type="text/css">
	.st0{display:none;}
	.st1{display:inline;}
	.st2{fill:#FFFFFF;}
	.st3{fill:#800000;}
	.st4{fill:#737373;}
	.st5{fill:none;stroke:#800000;stroke-width:2.5;stroke-miterlimit:10;}
	.st6{fill:none;stroke:#000000;stroke-width:2.5;stroke-miterlimit:10;}
	.st7{fill:none;stroke:#737373;stroke-width:2.5;stroke-miterlimit:10;}
	.st8{fill:none;stroke:#FFFFFF;stroke-width:2.5;stroke-miterlimit:10;}
</style>
<g id="Background" class="st0">
	<rect x="-1.54" y="-2.04" class="st1" width="598" height="600.02"/>
</g>
<g id="background_x5F_fill">
</g>
<g id="outer_x5F_circle_x5F_fill">
</g>
<g id="outer_x5F_circle_1_">
	<path class="st8" d="M299.33,47.96c-138.08,0-250,111.92-250,250s111.92,250.01,250,250.01c138.08,0,250-111.93,250-250.01
		S437.41,47.96,299.33,47.96z M299.33,485.25c-103.44,0-187.29-83.85-187.29-187.29s83.85-187.28,187.29-187.28
		c103.44,0,187.28,83.84,187.28,187.28S402.77,485.25,299.33,485.25z"/>
</g>
<g id="inner_x5F_circle">
	<path class="st2" d="M122.62,297.96c0-97.43,79.28-176.7,176.71-176.7c97.43,0,176.7,79.27,176.7,176.7
		c0,97.45-79.28,176.7-176.7,176.7C201.9,474.67,122.62,395.41,122.62,297.96 M120.19,297.96c0,98.78,80.36,179.14,179.14,179.14
		c98.77,0,179.14-80.36,179.14-179.14c0-98.77-80.36-179.13-179.14-179.13C200.55,118.83,120.19,199.19,120.19,297.96"/>
</g>
<g id="shield">
	<g>
		<path class="st2" d="M228.07,380.14c-2.22-0.95-4.64-1.56-6.69-2.95c1.44,4.87,2.51,9.13,5.22,14.27
			C228.13,394.38,230.81,387.32,228.07,380.14 M221.33,298.32l0.17,0.17c-0.03,6.61-18.6,16.09-26.55,20.35
			c12.3,4.24,23.93-7.17,22.53-4.4c-1.67,3.24-16.68,16.19-23.22,23.11c5.1,1.41,9.77-2.7,13.47-5.85
			c4.03-3.44,10.78-12.06,9.75-7.78c-10.91,13.46-19.5,41.43-14.21,43.22c3.03-6.33,15.58-38.65,16.37-38.5
			c0.83,0.16-0.99,8.53-1.26,14.07c-0.62,12.18-0.7,17.95,1.94,29.93c1.36-1.86,2.66-1.81,4.81-1.66c0.26-1.16,0.19-0.87-1.16-2.64
			c-3.49-4.62,0.52-10.92-1.16-14.76c-1.4-3.21-2.19-0.64-2.82-3.98c0.98-0.89,3.58-1.16,4.64-1.33
			c1.14-12.51,5.32-18.87,3.76-10.98c-0.8,3.99-2.02,10.62-1.44,10.81c0.58,0.2,0.63,0.19,1.13,0.46
			c0.23,0.12,21.02-34.07,9.49-10.38c-1.51,3.11-7.65,11.48-7.65,11.48c1.62,1.65,3.15,3.6,3.34,4.77
			c0.05,0.32,27.86-36.6,8.92-6.85c-1.16,1.82-6.85,7.91-8.3,9.68c-0.19,0.24,0.53,6.92,0.53,6.92c2.89-2,7.02-6.04,8.95-8.61
			c-0.26-3.77,0.63-3.27,0.83-6.97c0.88-0.56,2.03,1.01,3.43,2.26c0.66,0.59,19.08-31.49,7.52-7.42c-1.85,3.86-5.96,8.44-6.15,8.81
			c0.78,0.83,1.93,3.48,3.26,6.55c0.05,0.12,24.65-35.48,9.7-8.58c-1.18,2.12-8.58,11.03-8.49,11.27c1.82,4.45,3.41,8.78,3.4,8.78
			c-0.45-3.47-1.16-10.3,6.04-15.95c0.93,6.17,2.59,6.42,4.74,8.32c0.94,0.83,2.7,4.36,2.91,1.36c0.61-8.77-2.24-8.56-4.36-12.29
			c-0.51-0.9-0.41-2.9-0.02-2.78c17.71,0.53,17.12,17.12,20.08,17.11c-1.35-4.23-1.71-8.38-0.12-11.79
			c-4.74-3.36-3.56-9.12-2.65-11.61c-5.33-5.52-2.27-17.24,0.28-19.72c-3.43-4.99,0.8-8.4-0.11-11.46
			c-1.44-10.84-11.1-7.61-13.27-17.91c-1.51,1.83-4.3,8.08-2.99,10.15c1.5,2.38,4.72,2.58,4.92,4.32c0.08,0.74,0.32,2.82-0.21,3.26
			c-1.83,0.33-3.07-1.35-4.95-2.09c-3.75-1.48-12.83,4.73-13.38-0.75c-0.35-3.46,1.19-0.97,1.01-4.16c-0.15-3.3-1.81-0.98-1.84-5.23
			c-0.02-3.12,3.74-4.1,4.02-5.35c0.67-3.09,6.28,4.55,9.57-3.56c-1.91,0.27-5.79-1.07-5.43-2.96c0.98-5.07,1.06-17.34-10.42-14.7
			c-4.12,0.95-15.59,6.98-17.18,0.42c-4.13,7.32,4.04,6.04,6.51,5.89c-0.97,0.68-2.21,1.78-5.25,1.12
			c-6.46,4.26-30.07,19.26-36.89,23.03C207.05,307.21,221.13,298.32,221.33,298.32 M243.49,358.95c-3.2,3.2-4.32,3.28-4.14,4.66
			c0.72,1.95,2.13,3.33,3.63,5c1.89,1.55,2.59,2.93,1.2-1.57C243.33,364.06,243.54,361.89,243.49,358.95 M295.02,289.02
			c-0.57-1.27-1.54-2.49-2.92-3.12c-5.74-2.73-16.73,3.17-16.61-5.43c0,0-3.93,2.92-2.14,5.98
			C277.44,293.43,288.84,284.76,295.02,289.02 M208.69,203.03c-9.61,0-9.81,14.71,0,14.71
			C218.34,217.75,218.34,203.03,208.69,203.03 M208.69,232.43c-10.04,0-10.04,14.71,0,14.71
			C218.4,247.13,218.34,232.43,208.69,232.43 M218.75,215.39h8.55v-8.41h-8.55V215.39z M218.75,244.7h8.55v-8.41h-8.55V244.7z
			 M242.08,235.51c-3.84,2.35-3.16,4.95-1.89,6.54c0.7-0.49,3.17-2.17,4.18-3.18C243.78,238.53,242.48,236.55,242.08,235.51
			 M250.97,222.5c-0.02-0.81-0.05-1.58-0.12-2c0.1-0.76-1.33-2.49-1.73-2.52c-0.46-0.01-1.42,0.86-1.98,1.72
			c-0.28,0.5-0.33,1.83,0.27,2.53C248.63,223.6,249.2,223.65,250.97,222.5 M250.99,226.64c-0.01-0.31-0.02-0.6-0.01-0.95
			c0-0.37,0.01-1.36,0-2.4c-1.2,0.74-1.67,1.31-2.91,0.58c-2.02,1.63,1.06,2.64,1.71,3.19
			C250.26,226.81,250.65,226.73,250.99,226.64 M266.62,203.06c0.67-0.5,2.29-2.33,3.33-3.35c-0.59-0.36-1.65-1.09-2.06-2.11
			C266.04,199.07,265.69,200.09,266.62,203.06 M280.27,204.83c-1.13,0.89-2.13,1.69-2.67,2.15c0.41,0.77,3.02,2.66,4.48,1.99
			c1.44-0.66,2.12-2.1,0.79-2.85C281.95,205.58,281.11,205.2,280.27,204.83 M281.39,202.54c0.68-0.54,1.3-1.05,1.52-1.23
			c-1.01-0.94-2.71-1.85-3.48-1.96c-0.76-0.08-2.29,0.58-1.7,1.37c0.58,0.76,1.18,1.7,2.43,1.88
			C280.58,202.66,280.99,202.61,281.39,202.54 M285.39,240.56c0.06-1.01,0.11-2.04,0.02-2.58c0.12-0.76-2.25-2.2-2.63-2.2
			c-0.49-0.01-0.49,0.27-1.06,1.17c-0.28,0.48-0.05,1.94,0.19,2.14C283.2,240.22,284.21,240.58,285.39,240.56 M282.27,240.77
			c-2.04,1.7,0.26,3.28,0.88,3.83c0.69-0.35,1.59-0.5,2.29-0.75c-0.09-0.28-0.22-0.54-0.22-0.86c0-0.3,0.05-0.98,0.11-1.72
			C283.97,241.41,283.35,241.5,282.27,240.77 M277.75,243.44l-1.26,1.39l-1.2,1.22c-0.93-0.96-1.6-1.13-1.76-1.88l-0.05-6.1
			l-1.91-0.99c-0.89,0.74-1.56,0.42-0.8-0.25l2.88-2.7l0.7-0.1l1.84,2.7l0.04,5.76C277,243.2,276.34,243.18,277.75,243.44
			 M277.12,224.78c-0.98-2.7,0.79-5.21,1.65-5.94c0.69-0.57,2.29-1.93,3.32-2.59c1,0.61,1.77,1.04,2.28,1.28
			c-0.18,0.5-0.41,1.48-1.47,1.53c-1.61,0.05-2.86-0.38-3.72,0.56c-0.86,0.93-0.19,3.56,0.89,4.57c0.8,0.77,3.02,1.76,3.44,0.86
			c0.54-1.18,1.32-0.56,0.55,0.46c-0.52,0.67-1.46,2.11-1.97,3.05C280.39,228.42,278.1,227.55,277.12,224.78 M279.48,243.77
			c-0.01-1.5,0.76-2.68,1.81-3.76c-0.08-0.07-0.12-0.09-0.2-0.15c-0.3-0.25-0.79-2.88-0.41-3.44c0.5-0.72,2.83-2.96,4.39-3.11
			c1.07-0.12,2.66,2.21,3.59,3.24c-0.26,0.3,0.32,6.7,0.32,7.3c0.32,0.53,1.44,0.9,1.78,0.39c0.44-0.56,0.86,0.03,0.44,0.46
			c-0.44,0.4-2.03,1.69-2.52,2.29c-0.72-0.56-1.92-1.19-2.69-2.13c-1.59,0.3-3.24,1.45-4.52,2.39
			C280.01,246.61,279.53,245.2,279.48,243.77 M292.44,227.52l-1.29,1.39l-1.63,1.4c-0.92-0.95-1.58-1.21-1.74-1.96l-0.05-6.28
			l-1.5-0.92c-0.87,0.77-1.57,0.44-0.79-0.26l2.9-2.67l0.67-0.09l1.26,1.86l-0.06,6.67C290.99,227.35,290.99,227.25,292.44,227.52
			 M290.87,206.98c-3.49-0.36-2.58-1.45-1.99-1.42C292.14,205.76,291.41,207.04,290.87,206.98 M290.92,204.9
			c-3.48,0.13-2.58-1.46-2-1.42C291.87,203.64,291.47,204.88,290.92,204.9 M288.1,212.41l1.49,1.55v1.6l-1.12,1.01h-0.93l-0.92-0.94
			l-0.03-1.86L288.1,212.41z M286.55,199.68c-0.36,0.43-1.73,1.54-3.29,2.79c0.24,0.05,0.47,0.09,0.71,0.23
			c2.53,1.48,3.39,3.56,0.91,5.53c-1.36,1.1-3.57,2.32-5.96,2.38c-1.58,0.04-4.4-1.29-4.91-1.85c1.29-1.21,2.68-2.53,3.68-3.38
			c-1.57-1.2-3.03-2.82-1.83-4.67c0.9-1.4,3.68-3.62,6.14-3.52C284.43,197.3,285.54,198.99,286.55,199.68 M273.37,207.78
			c-0.69,0.34-2.06,1.77-3.17,1.77c-3.32-0.13-7.5-2.55-6.89-7c0.64-4.64,4.3-6.42,5.87-6.46c1.8,0.13,2.22,1.68,3.23,2.61
			c-1.53,1.26-4.05,3.73-5.52,5.24c0.36,0.78,2.08,3.72,5.73,2.79C274.29,206.35,274.84,207.06,273.37,207.78 M262.39,200.42
			c-0.6,0.6-1.98,1.48-2.53,1.88c-0.7-0.42-1.58-1.69-2.02-2.03c-0.2,0.19-0.61,0.4-1.01,0.63c0,0.84,0.04,8.39-0.04,9.25
			c-1.06,0.06-1.98,0.13-2.73-0.03c-0.08-1.1,0.07-7.12,0.02-8.1c-0.09-1.2-1.14-1.28-2.54-1.69c0.79-0.96,2.27-2.04,2.94-2.55
			c1.2,0.94,1.94,0.94,2.54,1.63c0.77-0.43,2.15-1.25,2.75-1.76c0.57,0.67,1.62,1.76,2.04,2.25
			C262.35,199.35,263.02,199.8,262.39,200.42 M250.84,216.01c1.06-0.12,1.95,2.04,2.9,3.07c-0.27,0.29-0.27,6.68-0.27,7.28
			c0.22,0.36,0.97,0.79,1.27,0.5c0.52-0.5,0.85,0,0.4,0.42c-0.4,0.41-2.49,2.21-3.02,2.79c-0.73-0.55-0.99-1.37-1.09-2.48
			c-1.27,0.3-2.46,1.01-3.23,2.18c-1.42-0.65-2.53-1.88-2.57-3.27c-0.03-1.44,0.95-2.27,1.99-3.24c-0.18-0.14-0.35-0.27-0.55-0.45
			c-0.29-0.26-0.69-2.56-0.41-3.2C246.96,218.01,249.25,216.16,250.84,216.01 M248.74,212.64c-0.47-0.69-0.58-1.3-1.55-1.03
			c-2.44,0.7-5.11,1.44-7.04,0.3c-2.06-1.27-3.84-1.66-3.89-6.37c-0.04-2.86,2.48-5.14,4.14-6.11c1.87-1.08,5.1-0.38,6.56,0.05
			c0.7,0.22,1.24,0.14,1.29-0.77c0.02-0.5,0.79-0.38,0.78,0c0,0.41-0.03,6.2-0.03,6.67c-0.02,0.45-0.96,0.5-0.94,0.06
			c0-0.66-0.23-1.91-0.44-2.93c-0.32-1.53-4.31-4.33-7.19-0.56c-0.07,0.18-1.23,2.16-1.08,3.7c0.1,1.15,0.28,2.76,1.05,3.82
			c2.26,3.2,5.48,2.13,7.17-0.48c0.61-0.95,0.51-2.11,0.55-2.79c0-0.41,0.91-0.46,0.91,0c0,0.48-0.04,4.33-0.04,4.7
			c0.02,0.56,0.43,1,0.64,1.28C250.16,213.02,249.53,213.7,248.74,212.64 M236.55,218.82c1.13-1.67,3.77-3.28,5.56-3.93
			c0.57,0.67,1.25,1.7,2.09,2.8c-0.84,0.66-1.71,1.52-2.21,2.12c-0.39-0.44-2.54-3.66-4.06-1.41c-0.83,1.2-1.7,4.71,1.11,6.89
			c1.37,1.03,2.81,1.37,4.68,1.07c-0.95,1.24-1.19,1.6-1.73,2.68c-2.71,0.48-3.81-0.38-5.14-1.5
			C234.03,225.25,234.92,221.32,236.55,218.82 M237.71,240.37c0.68-4.66,5.2-6.56,6.56-7.47c0.24,1.35,1.8,3.71,2.81,4.65
			c-1.53,1.25-5.05,4.19-6.4,5.21c0.74,1.35,3.53,2.32,4.47,1.3c0.69-0.69,1.55-0.45,0.77,0.45c-1.02,1.17-2.05,2.84-2.57,3.87
			C241.33,247.52,237.11,244.85,237.71,240.37 M248.47,236.48c1.28-1.01,1.97-1.77,2.85-2.6c0.76,1.21,1.1,2.35,1.79,2.86
			c0.91-0.78,2.44-1.74,3.12-2.5c0.67,0.33,1.84,1.03,1.92,3.42c0.05,2.38,0.38,6.11,0.38,6.94c0,0.44,0.12,0.3,0.82,0.15
			c0.65-0.18,0.91,0.15,0.41,0.58c-0.51,0.41-2.85,2.05-3.48,2.75c-0.83-1.55-0.98-2.65-0.64-4.18c0.27-1.25,0.04-4.65,0.04-5.42
			c0-0.77-1.17-1.02-1.67-1.46c-0.69,0.52-0.78,0.6-1.38,1.18c0,1.02-0.13,8.18,0.03,9.12c-1.61,0.06-1.45-0.04-2.38-0.04
			c-0.08-1.38-0.03-6.9-0.11-8.09C250.08,238.02,249.06,237.16,248.47,236.48 M260.92,228.11c-0.69,0.61-2.21-0.35-2.76-1.28
			c-0.87-1.47-0.6-4.93-0.48-7.73c0.11,0.01-0.5-0.69-1.08-0.81c-0.74-0.19-0.87-0.45,0.28-0.92c1.41-0.55,3.58-3.93,3.89-4.69
			c0.27-0.74,0.69-0.04,0.28,0.69c-0.87,1.67-0.51,3.62-0.37,4.2c0.09,0.26,2.74-0.1,3.31-0.1c0.37,0.02,0.33,1.13-0.02,1.1
			c-0.46-0.01-3.93,0.42-3.93,0.42c-0.24,0.12,0.28,5.59,0.63,6c0.05,0.06,1.14,1.01,1.56,0.6c0.52-0.49,1.03,0.03,0.41,0.54
			C262.32,226.38,261.73,227.47,260.92,228.11 M262.37,236.29c1.07-0.78,2.89-4.14,3.14-4.91c0.23-0.78,0.68-0.52,0.6,0.32
			c-0.1,1.19-0.65,3.84-0.44,4.38c0.1,0.26,1.79,0.25,2.36,0.25c0.37,0,0.4,1.09,0.05,1.09c-0.45,0-2.35,0.28-2.35,0.28
			c-0.27,0.12-0.13,4.05,0.24,4.46c0.76,0.73,1.34,1.23,2.37,0.14c0.5-0.52,1.03-0.04,0.43,0.49c-0.32,0.3-1.75,2.04-2.07,2.9
			c-0.33,0.85-2.21,0.2-2.82-0.69c-0.96-1.43-0.55-4.32-0.62-7.13C263.45,237.93,261.46,236.98,262.37,236.29 M275.24,231.06
			c-0.88,0.83-1.57,1.61-2.33,2.46c-0.66-0.44-1.66-1.3-2.43-1.97c1.26-0.58,1.96-1.35,2.39-2.2
			C273.37,230.46,274.37,230.89,275.24,231.06 M269.46,217.18c2.02,0.64,5.01,0.17,5.96,2.86c1.01,2.83-0.83,6.47-3.18,6.63
			c-1.97,0.16-3.75-0.5-4.86-0.4c-0.51,0.04-0.88,0.2-0.97,0.75c-0.07,0.6-0.86,0.86-1.01,0.07c-0.17-0.76-0.39-3.98-0.39-4.91
			c0-0.94,0.87-1.03,1.03,0c0.17,1.01,0.46,1.72,1.25,2.59c0.6,0.69,4.47,1.64,5.89,0.51c1.14-0.92,0.88-2.93-0.32-3.71
			c-1.19-0.79-5.98-1.9-6.79-3.27c-1.4-2.34,1.09-4.29,2.19-4.93c1.71-0.95,3.7-0.65,4.38-0.63c0.67,0,1.56,0.22,1.61-0.51
			c0.05-0.72,0.6-0.66,0.67,0.09c0.22,2.09,0.43,0.84,0.36,3.06c0,1.02-0.36,1.03-0.8,0.25c-0.28-0.52-3.23-2.98-5.61-1.44
			C266.85,215.5,267.61,216.67,269.46,217.18 M276.95,253.64c10.51,0.7,19.46,5.56,19.46,5.56v-67.77c0,0-15.45-10.82-40.56-1.13
			c-7.38,2.85-25.35,0.46-25.35,0.46v69.26C246.26,261.08,266.79,252.97,276.95,253.64 M301.69,275.92c0,0.9-1.16,2.16-1.16,2.16
			l4.19-2.12c-0.84-0.55-3.19-1.88-4.18-2.16C300.53,273.81,301.69,274.7,301.69,275.92 M307.92,275.86
			c-3.85,0.74-6.74,4.96-11.12,3.16c-0.57-0.38-1.76-0.69-1.6-1.56c0.79,0.45,2.01,0.74,2.87,0.87c0,0-2.35-1.95-0.28-4.35
			c-2.64,1.66-3.57,1.21-3.57,0.33c0-0.4,3.47-2.92,6.73-1.69c2.36,0.9,4.39,2.7,6.97,3.07V275.86z M297.12,267.91
			c-2.17,0.24-4.8,1.52-5.46,3.82c-1.32,1.3-1.26-2.2-3.94-0.66c-1.14,1.55,1.84,4.97,1.13,5.18c-2.92,0.89-2.56-4.39-4.22-4.52
			c-2.4,0.85-8.46,6.38-2.51,10.76c-0.18-2.96,5.41-6.18,7.26,0.35c5.62-0.43,7.51,2.98,8.2,4.9c8.27,1.47,5.89,6.96,5.66,6.96
			c-0.79-1.18-4.34-6.66-10.17-2.88c-1.35,0.88-3.69,1.73-4.84,0.58c0.11,1.84,2.44,3.5,4.02,3.06c5.18-1.42,6.49,3.4,2.52,4.72
			c0.85,1.32,2.48,1.24,3.98,0.33c2.23-1.35,2.49-2.57,3.3-3.38c1.41,6.75-7.14,7.4-9.86,7.81c0.42,1.44,1.34,1.75,3.06,2.26
			c-9.02,0.3-10.79,8.77-10.26,13.65c2.04,0.15,5.17-4.26,4.89-1.73c-6.39,6.78-8.54,15.85-5.18,21.63c1.6-0.65,2.1-2.42,2.66-3.86
			c0.24-0.17,3.52,1.29-1.72,7.58c-0.36,1.63-2.21,6.57,1.84,7.75c1.54-1.82,1.32-3.4,1.65-5.27c1.17-0.47,1.95,3.33,1.49,4.49
			c-5.27,2.18-4.61,18.33,1.49,27.02c-2.83-6.31-2.45-14.4,0-20.88c1.89-5,6.03-16.23,6.13-16.1c2.35,2.88,5.32,15.27,5.32,20.4
			c3.29-2.87,3.94-6.01,6.64-8.12c1.28,4.5,1.8,7.46,2.82,11.44c1.31-3.88,4.77-8.25-0.18-20.83c1.02-0.92,2.89,4.36,3.48,4.11
			c0.45-0.18,1.12-2.82-0.56-7.73c-3.47-3.24-4.25-8-3.7-8.36c0.45-0.29,2.01,4.93,3.85,5.2c0.37-4.06,1.36-8.21,1.06-11.36
			c-0.07-0.82-1.43-5.01-5.27-8.48c-2.22-2-3.08-6.19-2.88-7.03c2.15,1.98,1.68,3.43,3.51,4.23c0.76-1.7,0.24-8.02-1.97-10.78
			c-1.27-2.1-0.67-1.8,0.85-0.54c1.98,2.36,1.03,2.17,2.74,3.15c3.75-8.84,0.34-10.56,0.6-11.18c0.23-0.56,2.9,4.12,5.16,2.32
			c-3.69-1.95-3.59-4.91-4-8.11c-0.32-2.53-1.95-3.48-1.33-4.09c3.68,2.77,4.69-0.3,4.81-0.92c-0.71,0.4-3.98,0.83-4.38-4.25
			c-0.16-2.01-3.24-2.89-3.23-2.89c1.89-0.36,7.96-0.7,6.51-6.72c-0.74,1.41-2.54,3.66-6.31,2.78c-0.01,0,2.42-0.65,1.98-3.27
			C307.92,273.71,303.2,267.04,297.12,267.91 M348.63,205.45c0.97,0.8,3.64,2.06,5,2.54c0.01-1.15-0.01-2.29-0.1-2.83
			c0.09-0.77-2.63-2.22-3.05-2.22c-0.49-0.04-1.19,0.77-1.81,1.68C348.34,205.13,348.37,205.25,348.63,205.45 M351.42,212.73
			c0.9-0.43,1.52-0.62,2.22-0.66c-0.04-0.35-0.07-0.7-0.07-1.14c0-0.34,0.03-1.27,0.04-2.3c-1.2-0.38-2.73-1.03-4.03-1.76
			c0.19,0.12,0.39,0.22,0.59,0.34C348.75,209.8,350.68,212.13,351.42,212.73 M351.49,227c0.59,1.53,3.18,3.52,3.89,3.87
			c1.08-1.3,1.66-3.68,1.41-5.68c-0.18-1.54-2.17-3.23-3.88-3.86C350.72,222.66,350.72,224.93,351.49,227 M317.02,241.51
			c-1.28,2.43-0.22,2.94,0.49,3.53c0.91-0.45,1.7-0.85,2.33-1.31c0-0.44,0.03-1.26,0.04-2.18
			C318.43,241.71,317.96,242.03,317.02,241.51 M319.89,240.84c0-1.09-0.01-2.16-0.1-2.67c0.09-0.79-1.62-1.96-2.06-1.98
			c-0.49,0-0.87,0.18-1.49,1.11c-0.3,0.49-0.23,2.43,0.03,2.64C317.72,241.14,318.62,240.99,319.89,240.84 M322.01,247.08
			c-0.93-0.71-1.72-0.88-2.02-2c-2.4,0.92-3.3,2.31-4.74,3.31c-0.84-0.79-1.54-2.18-1.57-3.64c-0.03-1.42,1.38-3.35,2.16-4.1
			c-0.1-0.09-0.15-0.1-0.26-0.2c-0.31-0.26-0.76-2.36-0.33-2.91c0.53-0.76,2.66-3.69,4.34-3.82c1.16-0.11,2.05,1.32,3.03,2.38
			c-0.25,0.28-0.14,5.39-0.18,6.02c1.07,1.15,1.51,1.42,2.15,0.99c0.64-0.44,0.9,0,0.45,0.43
			C324.6,243.97,322.57,246.47,322.01,247.08 M327.82,236.91c0.17,0.04-2.37-0.96-1.28-1.5c1.91-0.94,3.79-2.92,4.09-3.74
			c0.29-0.77,1.02-0.42,0.64,0.36c-0.37,0.78-0.64,2.69-0.42,3.28c0.08,0.26,1.53,0.39,2.18,0.4c0.37,0,0.34,1.14-0.03,1.14
			c-0.48-0.02-2.27,0.02-2.27,0.02c-0.26,0.13-0.07,6.4,0.09,6.94c0.2,0.52,1.68,0.88,2.23,0.37c0.55-0.51,1.12,0.02,0.46,0.51
			c-0.34,0.3-1.48,2.08-2.37,2.43c-0.93,0.36-2.32-0.24-2.93-1.15C327.21,244.49,327.79,239.79,327.82,236.91 M332.07,228.32
			c-1.09-0.62-2.59-2.06-3.39-3.25c-1.46,1.87-1.8,3.46-4.46,4.14c1.54-1.29,2.95-4.14,2.85-6.86c-0.12-2.46-1.45-3.66-2.63-4.11
			c-1.02,0.48-1.89,1.15-2.42,1.38c-0.56,0.22-0.71-0.65-0.31-0.84c1.29-0.63,4.14-2.8,4.53-3.22c1.21,0.22,2.7,1.26,2.91,2.23
			c0.91-0.56,2.53-2.33,3.02-2.73c0.55,0.96,2.18,2.15,4,2.81c-1.66,2.83-5.34,1.13-5.87,0.44c-0.59,0.99-0.73,1.58-0.14,2.84
			c0.76,1.69,3.79,3.29,5.35,3.71C335.02,225.37,332.84,227.81,332.07,228.32 M334.62,238.37c1.1-1.22,2.28-2.01,2.95-2.69
			c1.17,0.87,1.54,1.4,2.17,2.37c-0.02,1.56-0.35,4.86-0.25,6.02c0.06,1.12,4.53,1.88,4.73,0.22c0.2-1.65,0.05-3.76,0-4.74
			c-0.08-0.75-1.84-1.11-2.74-0.99c1.2-1.26,2.22-2.19,2.98-2.88c1.07,0.8,2.13,1.96,2.77,2.93c-0.03,1.68-0.32,5.59-0.09,6.62
			c0.3,1.08,0.2,1.15,1,1.69c-0.83,0.77-1.44,1.11-2,1.72c-0.84-0.24-2.26-1.51-2.17-2.63c-1.02,0.7-4.04,1.96-5.13,2.24
			c-1.09-1.14-1.92-1.42-1.99-2.79c-0.06-1.42,0.32-5.08-0.13-5.94C336.29,238.64,335.53,238.44,334.62,238.37 M348.8,226.65
			c0.1-3.57,2.47-6.59,6.3-7.96c3.02,1.01,4.28,4.06,4.38,6.12c0.07,1.68-1.04,3.87-1.79,5.23c-1.19,0.78-2.39,1.94-3.52,3.03
			C350.51,233.05,348.73,228.75,348.8,226.65 M349.28,240.42c0.91-0.52,3.08-2.5,3.83-3.01c1.25,0.97,2.06,1.93,2.68,2.62
			c0.83-0.43,2.13-1.37,2.76-1.89c1.1,0.78,2.33,1.79,2.78,2.33c0.58-0.54,1.29-0.11,0.63,0.55c-0.63,0.59-2.06,1.84-2.61,2.27
			c-0.8-0.43-2.18-2.01-2.64-2.35c-0.23,0.2-0.69,0.42-1.08,0.64c-0.02,0.87,0,8.01-0.06,8.89c-1.17,0.07-2.13,0.15-2.93-0.02
			c-0.07-1.14,0.05-7.33,0-8.33C352.56,240.89,350.59,240.45,349.28,240.42 M363.64,227.71c-0.92-0.06-1.82-0.2-2.31-0.35
			c-0.79-0.24-0.47-1.1,0.19-1.1c0.62,0.01,1.62,0.2,2.07,0.37C364.03,226.81,364.22,227.78,363.64,227.71 M363.69,225.57
			c-0.9-0.04-1.83-0.2-2.33-0.35c-0.79-0.21-0.45-1.1,0.18-1.1c0.63,0,1.63,0.18,2.11,0.36
			C364.11,224.67,364.3,225.63,363.69,225.57 M358.03,211.93l-2.75,3.01c-0.81-0.58-1.29-1.19-1.52-2.21
			c-2.11,0.41-3.54,1.67-4.52,2.42c-0.88-0.79-2.18-2.89-2.2-4.34c-0.04-1.44,1.1-3.56,1.89-4.3c0.08,0.03,0.15,0.08,0.23,0.12
			c-0.45-0.27-0.89-0.55-1.22-0.82c-0.3-0.26-0.4-0.98,0-1.55c0.54-0.72,2.26-2.87,3.94-3.12c0.89-0.12,2.4,0.12,4.47,1.96
			c-0.27,0.32-0.27,6.35-0.27,6.98C356.81,210.97,358.03,211.93,358.03,211.93 M339.8,222.79c-0.44,2.23,1.48,4.06,2.96,4.83
			c1.18,0.62,3.22,0.27,3.72,0.19c0.49-0.07,0.35-0.22,0.72-0.56c0.37-0.36,0.81-0.04,0.51,0.31c-0.33,0.36-3.32,3.2-4.14,3.76
			c-0.75,0.19-2.43,0.14-3.42-1.12c-1.77-2.22-3.05-3.02-2.49-7.06c0.39-2.73,4.95-5.1,6-5.69c0.42,0.41,2.49,2.6,3.4,3.33
			c-0.35,0.46-1.5,0.97-2.61,0.96c-1.13,0-1.89-0.94-2.64-1.78C341.28,220.47,340.13,221.14,339.8,222.79 M345.73,200.82
			c-0.51,0-5.66,0.62-5.66,0.62c-0.27,0.13,0.26,6.5,0.45,7.02c0.16,0.53,0.66,1.33,1.24,0.82c0.53-0.52,1.14,0.35,0.51,0.86
			c-0.36,0.29-1.49,2.54-2.02,2.87c-0.81,0.52-1.99-1.17-2.37-2.21c-0.62-1.74-1.04-6.09-1.02-8.99c0.18,0.05-2.41-1.02-1.24-1.48
			c2.26-0.97,4.44-3.98,4.72-4.76c0.28-0.79,1-0.46,0.63,0.33c-0.75,1.58-0.67,2.71-0.35,3.64c0.11,0.25,4.46,0.16,5.12,0.16
			C346.1,199.69,346.08,200.82,345.73,200.82 M333.72,208.69l-2.13,2.76h-1.98c-0.98-0.98-1.64-1.75-1.83-2.54l-0.11-6.63
			l-2.47-1.42c-0.46,0.62-1.37,0.62-1.02,0.1l3.41-2.99l0.74-0.08l2.17,2.17l-0.04,6.86C331.54,208.14,332.18,208.42,333.72,208.69
			 M330.95,195.19l-1.2,1.04h-0.99l-0.99-0.98l-0.04-1.92l1.6-1.36l1.61,1.56V195.19z M324.1,195.04c-1.18,0.35-2.03,1.53-2.32,2.74
			c-0.23,1.24-4.26,12.91-4.73,13.68c-0.96-3.65-5-12.32-6.29-14.17c-1.11-1.63-2.17-1.33-3.19-1.36c-0.99,0-0.61-0.94,0.2-0.87
			c1.12,0.14,7.49,0.7,9.3,0.96c0.65,0.13,0.66,0.72-0.19,0.98c-0.44,0.12-1.46,0.61-1.46,1.1c0,0.69,2.31,5.77,2.95,6.73
			c0.54-1.31,2.72-6.86,2.29-8.09c-0.48-1.22-0.65-1.41-1.56-1.5c-0.91-0.11-0.91-0.64,0.18-0.81c1.09-0.17,4.11-0.43,5.02-0.32
			C325.21,194.19,325.31,194.71,324.1,195.04 M309.67,216.03c2-1.1,6.5-1.79,8.04-1.3c0.78,0.21,1.57,0,1.57-0.36
			c0-0.52,0.72-0.38,0.72,0c0,0.39-0.02,5.3-0.06,5.77c0,0.48-0.71,0.42-0.71,0c0-0.71,0-0.93-0.62-1.87
			c-1.8-2.7-6.76-2.93-9.22,0.32c-0.84,1.09-1.16,3-0.21,3.31c0.93,0.31,4.46,0.03,5.6-0.18c1.14-0.2,3.98-0.68,4.31-0.91
			c0.33-0.2,0.76-0.47,0.76,0.09c0,0.58,0,2.45-0.02,3.02c0,0.58-0.45,0.3-0.75,0.08c-0.34-0.19-3-0.46-4.16-0.54
			c-1.93-0.16-4.84-0.77-5.8-0.48c-0.96,0.28-0.21,1.77,0.63,2.89c2.43,3.28,6.96,3.39,8.78,0.71c0.67-0.97,0.67-1.17,0.67-1.85
			c0-0.44,0.74-0.51,0.74,0c0,0.45-0.04,4.52-0.04,4.92c0,0.4-0.76,0.52-0.76-0.02c0.03-0.86-0.51-0.8-1.51-0.51
			c-2.63,0.7-6.15,0.93-8.24-0.25c-2.21-1.27-4.14-1.68-4.19-6.54C305.16,219.39,307.89,217.05,309.67,216.03 M306.05,230.95
			c0.66,0.06,2.63,0.1,3.33,0.1c-0.08,1.47-0.08,11.69,0,12.75c0.09,1.05,1.01,1.38,1.91,0.96c0.46-0.18,0.87,0.14,0.28,0.63
			c-1.01,0.74-2.23,2.52-2.79,3.2c-1.16-0.79-2.42-1.78-2.32-2.73C306.61,244.21,306.11,232.33,306.05,230.95 M320.9,253.64
			c6.97,0,34.36,7.52,47.57,6.62v-68.92c0,0-19.44,2.75-36.27-3.46c-13.74-5.07-32.62,3.78-32.62,3.78c0.02,2.35,0,67.58,0,67.58
			S306.53,253.64,320.9,253.64 M370.93,232.81v13.12c0,0,7.33-0.06,15.46-5.29c2.44-1.58,6.04-0.93,7.84,0.5h0.01
			c0,0-1.09-8.59-8.37-7.53C372.48,235.56,370.93,232.81,370.93,232.81 M394.22,213.82c0.12,0.84,0.2,1.44,0.25,1.82
			c-0.05-0.39-0.13-0.98-0.24-1.82c0,0-0.41-7.73-8.7-7.73c-2.7,0-5.98,3.29-14.37-0.35v13.12c3.4,1.01,12.73-4.32,16.45-5.94
			C390.27,211.75,394.04,212.5,394.22,213.82 M385.1,351.61c-0.55-20.76-13.28-43.78-9.82-39.5c8.67,10.72,11.46,33.94,17.4,53.94
			c0,0,3.82,1.95,3.01-23.43c-0.17-5.15-2.26-11.98-4.81-16.75c-5.04-9.42-15.24-25.31-14.95-25.42c2.46-2,8.45,11.7,13.66,17.09
			c3.38,3.49,12.76,6.9,13.41,6.45c-7.53-14.59-25.75-28.32-23.85-30.03c13.42,12.58,17.66,13.18,18.21,12.51l-12.08-11.74
			c-3.41-4.58-7.93-8.1-7.3-7.95c5.39,1.19-2.82-4.48-9.15-6.21c-1.14-0.31-2.97-0.41-3.03-0.98c-0.1-0.98,1.49-0.56,2.82-0.98
			c0.87-0.25,1.75-0.92,1.77-2.17c-2.42,0.53-4.9-0.03-6.97-0.97c-4.27-1.98-11.93-4.29-15.46-2.9c-2.06,0.81-2.45,0.7-4.67,2.41
			c-0.97-0.41-3.67-2.13-7.49,2.47c-1.18,1.42-2.6,3.08-2.67,4.3c-0.16,3.08,0.07,0.16,0.83,3.08c0.3,1.23-1.08,3.47-6.71,5.36
			c-2.17,0.73-1.63,2.88-1.63,2.88c1.08-0.52,2.78-1.73,5.41-0.5c5.14,2.41,6.14-1.4,9.34-4.1c0,0-0.88,3.42-0.01,3.6
			c3.99,0.83,2.66,3.82,2.15,4.27c-5.03,4.49-2.92,6.19-4.72,8.96c-1.69,2.62-4.3,3.61-8.19,3.48c-5.37-0.17,7.03-8.29-4.83-11.66
			c1.86,3.1,2.61,5.6-1.53,8.01c-2.61,1.52-1.28,9.24-7.99,5.66c0,0.01-0.55,5.72-1.32,5.96c9.1,7.98,4.01,12.33,4.48,23.72
			c2.85,7.25-0.28,10.71-1,11.11c0.45,4.92,0.91,7.61,3.98,11.6c2.23,2.9-0.21,7.36,2.07,10.47c2.09-7.4,4.33-4.32,4.93-14.61
			c0.84-1.73,4.29-4.78,6.26-4.97c-0.03,6.21,2.26,11.85,1.77,14.47c0,0,5.23-0.95,6.85-0.38c1.29,0.44,2.28,2.13,2.32,3.16
			c-1.78,1.12-1.79,0.68-4.47,2.65c-4.7,3.42-6.86,10.4-6.86,10.4c-0.02,0.01,11.04-8.81,11.83-10.4c0.63-1.26,1.23-3.2,1.82-5.2
			c0.06-0.22-5.7-3.58-7.28-6.65c-4.94-9.61,7.65,5.69,7.95,4.36c0.74-3.32,3.05-6.45,3.05-6.45c-0.8-0.94-2.78-1.53-5.79-6.84
			c-6.89-12.13,7.98,5.18,7.98,5.18c3.94-2.26,3.96,0.76,4.46,3.95c0.05,0.3,6.69,5.2,7.01,5.51c1.88-1.75,3.24-4.12,4-5.75
			c0.1-0.22-12-10.95-14.07-14.49c-16.68-28.6,13.5,12.7,14.92,11.56c0.79-2.24,1.07-5.31,0.98-9.48c0-0.1-5.68-4.02-9.31-10.02
			c-14.02-23.15,9.2,6.9,9.19,6.69c-0.28-4.96-4.33-26.45-1.53-19.99c1.44,3.32,5.96,17.05,5.13,31.03
			C376.18,354.84,382.65,352.25,385.1,351.61 M358.81,374.43c0,0-2.23-1.69-2.35-1.36c-0.37,0.98-0.85,2.08-1.5,3.38
			C354.38,377.62,356.13,376.79,358.81,374.43 M357.92,365.8c-0.28,1.88-0.28,3.35-0.87,5.48c-0.05,0.21,2.12,1.08,3.1,1.93
			c1.39-1.3,2.63-1.95,4.09-3.77c-0.32-0.2-6.13-5.25-6.14-5.03C358.06,365.08,358.05,364.99,357.92,365.8 M375.89,377.74
			c2.58-2.17,4.06-5.87,7.38-6.98c-2.51-2.3-4.97,2.28-6.24,0.69c2.3-3.64,3.77-6.42,4.01-10.96c0.13-2.46,2.98-4.74,3.65-6.1
			c-2.74,0.4-10.05,4.71-11.53,7.19c-4.92,6.5-4.66,12.6-25.23,21.68c-1.02,0,3.8-3.52,5.18-7.58c0.65-1.9,3.35-10.72,1.49-14.97
			c-4.25,4.32-3.38,5.73-4.58,8.92c-3.07,8.42-4.75,9.21-12.42,14.4c-1.02,0.69-6.9,9.78-14.54,10.22c0.77-0.21,0.33-2.11,2.91-3.79
			c8.55-5.6,5.29-17.69,16.45-19.7c-5.56-1.98-9.37,3.43-10.39,2.89c4.5-6.23,0.54-11.5,1.2-16.59c-1.5,0.8-3,2.62-3.14,4.13
			c-0.84,9.06-5.07,10.64-5.5,14.55c0.9,6.46-4.29,11.49-8.1,16.03c-0.73-3.76,0.25-7.11,4.99-10.23c2.62-1.72-0.25-6.87-0.25-6.87
			c-1.06,5.64-4.23,7.37-6.21,7.65c-1.72,0.25,6.05-7.89,5.15-15.33c-0.4-3.31-1.35-1.84-1.88-5.56c-6.71,7.44-1.8,12.06-8.67,20.65
			c-3.25,4.07-4.48,11.23-4.91,11.41c0.07-10.66,0.42-7.54,5.15-16.2c3.9-7.12-0.21-13.76-0.74-18.06
			c-8.53,5.87-7.82,17.2-8.04,14.75c-0.21-2.41-1.27-6.66-0.13-10.5c1.9-6.38-2.13-16.11-2.13-16.11
			c-11.94,18.73-1.92,40.61-2.67,40.34c-5.19-8.11-8.96-8.43-10.09-14.65c-0.61-3.39-6.77-21.93-18.07-22.26
			c5.7,4.91,4.32,5.58,4.7,13.62c-3.63,20.12,24.52,22.21,22.64,32.64c-3.86-6.18-9.75-8.79-18.62-13.62
			c-3.93-3.12-8.37-4.49-8.61-9.36c0.47-3.54,0.67-2.81,0.07-7.41c-0.44-3.29-3.67-1.3-6.05-8.16c-5.08,4.6-3.22,9.8-2.81,12.77
			c0.12,0.84,0.7,3.97-0.08,5.79c-1.81-1.25-3.06-3.82-5.08-6.38c-3.65-4.67-3.6-10.33-5.43-14.27c-0.85-1.83-2.06-4.3-2.77-4.34
			l-0.13,0.08c-0.89,7.32-0.45,13.71,2.86,19.19c0,0-0.92,1.57-1.65,1.98c-3.15-0.83-7.63-3.49-9.45-8.63
			c-3.92,3.3-1.14,7.55-1.33,7.48c-8.81-4.51,0.1-22.01-12.45-21.5c3.09,3.37,1.14,7.7,0.87,11.74c-0.07,6.56,8.27,11.66,8.27,11.66
			c-9.3-3.14-11.21,1.22-11.1,1.22c0,0,13.7,5.95,35.32,8.19c2.78,0.29,6.75,3.56,6.09,3.56c-2.77-0.22-8.27-3.8-16.2,3.24
			c4.66,0.12,7.86,7.72,15.45,3.36c19.57-5.54,26.82,4.18,30,6.67c-0.68,1.22-15.04-9.02-26.43-2.23
			c-6.06,3.61-15.79,0.34-23.41-5.36c3.08,7.86,16.18,16.71,20.51,16.72c5.32,0.01,12.1-6.93,19.81-6.55
			c12.34,0.61,14.06,11.63,12.69,10.78c0,0-9.71-16.06-22.19,1.09c5.83-2.67,13.63-1.99,20.46,1.25c0.92,0.44-1.67,3.31-3.51,5.4
			c-1.2,1.36-6.4,9.07-12.03,1.48c-0.84-1.13-3.53-8.18-21.13-6.68c6.65,3,13.99,10.87,17.61,14.46c9.22,9.13,23.17-11.08,23.7-8.83
			c0,4.54,2.33,6.75,3.56,9.2c3.09,6.18-3.93,5.15-7.73,3.56c0,0,7.28,11.34,13.37,5.03c6.75-6.99-8.83-12.27-3.88-17.83
			c2.79-3.13,12.58,7,17.01,7.03c11.97,1.33,11.34-10.03,17.66-9.7c-5.94-6.02-12.26-2.74-13.58-1.2
			c-3.98,4.65-8.61,1.53-11.81-0.98c-1.76-2.3-4.69-2.66-7.3-1.96c-1.24,0.1,2.51-4.4,7.39-3.45c11.01,2.14,22.04-1.81,24.76-3.33
			c4.43-2.49,6.91-6.71,11.87-11.43c-1.55,0.3-10.7,5.39-13.64,6.88c-8.82,4.44-14.34-1.32-15.33-1.29
			c-1.69,0.05-1.26-1.28,1.4-2.14c9.05-2.02,15.29-10,23.92-13.14C355.75,382.81,367.83,385.7,375.89,377.74 M372.43,393.24
			c3.61-5.16,5.68-10.71,6.9-16.71c-2.1,2.74-5.19,5.13-8.27,6.37C368.88,389.79,369.9,396.9,372.43,393.24 M405.21,336.33
			c-8.99,96.69-89.92,113.14-107.16,116.28c-0.92,0.17-97.45-12.07-107.18-116.26c0-0.04,0-153.72,0-153.72s92.19-11.91,214.33,0
			L405.21,336.33z M410.83,337.22l-0.01-160.1c-128.62-12.4-225.69,0-225.69,0s0,160.09,0,160.12
			c10.25,108.53,111.89,121.28,112.86,121.1C316.15,455.07,401.37,437.93,410.83,337.22"/>
	</g>
</g>
<g id="letters">
	<path class="st2" d="M252.93,498.29c-3.15-0.75-5.62-1.39-7.54-1.97c-0.58,0.09-0.85,1.25-0.52,1.72l1.59,0.6
		c2.14,0.79,2.43,1.69,1.48,5.63l-2.13,8.95c-0.95,3.94-1.59,4.57-3.86,4.31l-2.22-0.26c-0.5,0.27-0.78,1.43-0.31,1.78
		c1.98,0.36,4.46,0.89,8.14,1.76c3.63,0.86,6.24,1.56,8.16,2.13c0.58-0.09,0.86-1.26,0.52-1.72l-2.09-0.78
		c-2.14-0.79-2.45-1.64-1.5-5.59l2.14-8.94c0.94-3.94,1.6-4.62,3.87-4.34l1.68,0.16c0.5-0.26,0.78-1.41,0.31-1.75
		C258.84,499.64,256.19,499.07,252.93,498.29z M312.65,502.64c-6.64,0.42-11.66,5.18-11.24,11.66c0.3,4.86,3.7,8.04,8.87,7.72
		c1.68-0.09,3.3-1,4.23-1.66c0.14-0.45,0.11-1.1-0.24-1.4c-0.77,0.11-1.46,0.21-2.19-0.23c-2.3-1.27-3.32-4.57-3.48-7.16
		c-0.23-3.57,1.07-6.24,3.55-6.4c2.38-0.15,4.48,2.97,4.81,8.32c0.67,10.46-4.23,16.3-6.69,18.63c-1.69,1.62-4.25,3.08-7.58,4.21
		c-0.25,0.39-0.14,1.36,0.36,1.6c6.56-0.81,11.63-3.61,15.02-6.91c5.04-5.02,6.8-11.42,6.45-16.99
		C324.07,506.91,320.03,502.18,312.65,502.64z M358.85,505.39c-0.84-3.15-3.04-5.76-6.22-7.3c-3.13-1.52-6.86-1.85-10.46-0.92
		c-6.32,1.66-10.81,6.76-10.91,12.45c-0.02,0.95,0.09,1.91,0.33,2.85c1.7,6.47,9.17,10.16,16.68,8.2
		c6.32-1.65,10.81-6.75,10.91-12.44C359.2,507.28,359.07,506.32,358.85,505.39z M347.47,517.55c-3.64,0.93-7.6-2.17-8.83-6.91
		c-0.26-1.01-0.39-2.03-0.37-3.03c0.07-3.66,1.96-6.59,4.73-7.3c3.63-0.95,7.58,2.16,8.82,6.9c0.26,1.02,0.38,2.03,0.37,3.04
		C352.11,513.89,350.22,516.84,347.47,517.55z M283.07,492.57c-6.35-0.56-10.79,3.13-11.24,8.27c-0.34,3.84,1.96,6.71,4.92,8.81
		c-3.79,1.73-6.55,4.19-6.87,8.01c-0.49,5.53,3.96,8.57,9.46,9.05c7.39,0.65,11.33-2.91,11.75-7.8c0.36-4.14-1.76-7.08-5.16-9.76
		c3.21-1.41,6.23-3.65,6.55-7.27C292.94,496.63,289.39,493.12,283.07,492.57z M284.2,520.21c-0.24,2.78-1.95,4.26-4.16,4.07
		c-2.37-0.21-4.06-2.74-3.78-5.96c0.22-2.47,1.12-4.72,3.27-6.32C282.05,513.74,284.54,516.4,284.2,520.21z M286.39,500.69
		c-0.23,2.6-1.19,4.81-2.78,6.31c-3.55-2.28-5.44-4.9-5.21-7.59c0.25-2.87,2.2-4.55,4.35-4.37
		C285.34,495.26,286.64,497.88,286.39,500.69z"/>
	<g>
		<path class="st2" d="M436.05,109.74c-1.55-1.17-2.83-2.2-4.4-3.51c-0.32-0.07-0.92,0.58-0.8,0.91l0.57,0.55
			c2.03,1.98,1.7,2.57-1.37,6.64l-10.54,13.94c-3.07,4.05-3.52,4.5-5.98,3.08l-1.05-0.63c-0.41,0.06-0.81,0.75-0.66,1.04
			c1.87,1.3,3.23,2.25,4.92,3.54c1.55,1.16,2.83,2.2,5.06,4c0.32,0.06,0.94-0.58,0.82-0.91l-1.24-1.11
			c-2.14-1.92-1.78-2.56,1.29-6.61l4.05-5.36c0.76-1,0.9-0.96,2.06-0.08l2.64,1.99c1.48,1.12,2.41,1.89,2.83,2.45
			c0.56,0.78,0.46,1.56,0.14,2.4l-0.76,1.8c0.11,0.44,0.68,0.88,1.02,0.76c0.66-0.88,1.61-2.47,2.66-3.86
			c1.09-1.43,2.43-2.88,3.14-3.82c0.02-0.35-0.64-0.84-1-0.76l-1.54,1.3c-1,0.85-1.46,0.8-2.01,0.64c-0.58-0.2-1.88-1.05-3.47-2.25
			l-2.64-1.98c-1.15-0.89-1.26-0.97-0.47-2.03l6.2-8.2c1.11-1.48,1.17-1.55,2.33-0.67l2.36,1.79c1.63,1.23,2.91,2.19,3.59,3.07
			c1.56,1.96,0.94,3.76-0.07,5.73c0.09,0.43,0.72,0.72,1.02,0.59c1.02-1.53,2.39-3.42,3.74-5.2c-0.59-0.26-2.83-1.96-5.3-3.84
			L436.05,109.74z M472.54,181.29c-2.96,0.84-7.88,1.1-11.67-3.89c-4.81-6.34-4.23-14.88,3.9-21.04c7.99-6.07,15.57-3.89,20.06,2.02
			c4.25,5.6,2.56,9.63,0.36,12.22c-0.03,0.44,0.45,0.99,0.87,0.98c2.12-2.09,4.41-4.13,5.27-4.85c-0.31-0.32-0.43-0.64-0.66-1.21
			c-0.88-2.2-2.69-5.46-4.27-7.54c-3.05-4.03-6.85-6.8-11.21-7.95c-4.51-1.21-9.64-0.35-13.94,2.91c-4.99,3.79-6.69,8.85-6.46,13.55
			c0.24,4.26,2.06,8.12,4.71,11.59c1.88,2.47,4.57,4.83,5.52,5.44c0.48,0.31,0.98,0.65,1.41,1.06c1.18,0.02,4.49-0.91,6.7-2.16
			C473.29,182.05,472.94,181.4,472.54,181.29z M482.08,197.46l6.15-3c1.31-0.64,1.44-0.59,2.46,1.5l6.1,12.48
			c1.03,2.1,0.98,2.22-0.34,2.86l-6.14,3c-4.59,2.24-5.01,2.45-6.75,0l-0.54-0.76c-0.39-0.13-1.05,0.3-1.05,0.63
			c1.02,1.87,1.84,3.42,2.71,5.2c0.83,1.71,1.5,3.21,2.43,5.35c0.27,0.2,1.11-0.1,1.15-0.45l-0.38-1.11
			c-0.93-2.68-0.41-3.04,4.17-5.28l15.7-7.67c4.58-2.23,5.27-2.46,6.78-0.07l0.54,0.87c0.3,0.18,1.04-0.29,1.04-0.62
			c-1.04-1.93-1.81-3.38-2.64-5.08c-0.87-1.78-1.54-3.29-2.45-5.34c-0.26-0.2-1.08,0.1-1.12,0.45l0.32,0.87
			c0.99,2.71,0.39,3.12-4.2,5.34l-5.03,2.46c-1.34,0.66-1.44,0.6-2.46-1.5l-6.09-12.48c-1.02-2.09-1.02-2.2,0.33-2.86l5.03-2.45
			c4.58-2.23,5.27-2.47,6.77-0.07l0.48,0.79c0.31,0.18,1.04-0.29,1.05-0.61c-1-1.84-1.76-3.3-2.59-5c-0.92-1.88-1.55-3.4-2.56-5.56
			c-0.25-0.19-1.07,0.1-1.12,0.45l0.47,1.17c0.93,2.35,0.33,3.02-4.25,5.26l-15.7,7.66c-4.58,2.24-5.05,2.36-6.67,0.14l-0.5-0.68
			c-0.4-0.14-1.05,0.29-1.05,0.62c0.86,1.69,1.68,3.12,2.6,5c0.83,1.7,1.5,3.21,2.57,5.6c0.26,0.19,1.09-0.1,1.13-0.45l-0.48-1.33
			C477,200.21,477.5,199.69,482.08,197.46z M514.99,230.71l-16.57,4.89c-4.93,1.46-5.61,1.55-6.75-1.09l-0.48-1.13
			c-0.37-0.19-1.09,0.12-1.15,0.45c0.77,2.3,1.3,3.86,1.88,5.81c0.54,1.86,0.95,3.46,1.55,5.81c0.21,0.24,1.1,0.09,1.2-0.25
			l-0.21-1.2c-0.48-2.84,0.15-3.13,5.08-4.59l16.58-4.88c4.93-1.45,5.75-1.6,6.79,1.08l0.44,1.14c0.27,0.23,1.07-0.12,1.14-0.43
			c-0.79-2.3-1.29-3.87-1.83-5.73c-0.59-1.96-1.02-3.55-1.6-5.91c-0.23-0.23-1.09-0.08-1.19,0.26l0.26,1.19
			C520.69,228.94,519.93,229.26,514.99,230.71z M512,250.65c-6.21,0.89-10.14,4.5-12.24,8.72c-1.84,3.85-2.11,8.1-1.48,12.43
			c0.44,3.07,1.66,6.43,2.19,7.43c0.26,0.49,0.54,1.05,0.71,1.62c1.02,0.58,4.37,1.38,6.93,1.35c0.3-0.24,0.29-0.98,0-1.28
			c-2.99-0.69-7.42-2.84-8.32-9.05c-1.13-7.88,3.52-15.07,13.61-16.52c9.94-1.44,15.5,4.14,16.56,11.48c1,6.97-2.43,9.67-5.59,10.86
			c-0.24,0.38-0.08,1.08,0.29,1.28c2.87-0.81,5.86-1.48,6.95-1.69c-0.11-0.43-0.06-0.79,0-1.38c0.3-2.34,0.3-6.08-0.07-8.67
			c-0.72-4.99-2.71-9.27-5.95-12.38C522.23,251.62,517.32,249.87,512,250.65z M515.27,329.48c-4.18-0.93-8.25-0.26-11.73,1.95
			c-4.5,2.82-7.22,7.65-8.48,13.28c-0.57,2.56-0.77,6.1-0.67,8.75c0.04,0.95,0.04,1.85-0.09,2.41c0.1,0.22,0.38,0.29,0.57,0.17
			c0.51-0.77,1.71-0.81,3.6-0.39l2.65,0.59c2.4,0.54,3.72,0.89,3.51,2.93l-0.07,0.78c0.2,0.39,0.93,0.5,1.2,0.22
			c0.25-1.58,0.58-3.2,0.99-5.04c0.63-2.8,1.24-5.39,1.64-6.75c-0.07-0.36-0.91-0.59-1.19-0.26l-0.71,2.03
			c-0.98,2.86-1.3,2.94-5.28,2.05l-1.88-0.42c-1.52-0.34-2.31-0.77-2.6-1.07c-0.69-0.71-0.91-2.59-0.26-5.53
			c2.13-9.53,10.32-12.63,19.43-10.59c7.1,1.58,12.75,7.07,10.69,16.27c-1.08,4.84-3.48,8.03-8.9,8.21
			c-0.33,0.22-0.48,1.09-0.14,1.31c2.93,0.21,5.47,0.47,7.03,0.82c0.04-0.59,0.69-1.98,1.08-2.84c0.36-0.75,1.45-3.15,2.05-5.85
			c1.6-7.16,0.43-12.34-2.18-16.26C523.09,332.61,519.3,330.37,515.27,329.48z M72.45,308.54l17.47,0.01c5.09,0,5.82,0.25,6.06,3.02
			l0.15,1.6c0.29,0.29,1.07,0.19,1.21-0.11c-0.1-2.86-0.14-4.51-0.14-6.59v-4.36c0.01-4.33,0.06-8.64,0.15-13.01
			c-1.31-0.63-5.04-1.84-6.74-2.19c-0.44,0.19-0.58,0.88-0.34,1.21c2.52,1.27,4.22,2.58,4.71,3.44c0.53,1.08,0.73,2.48,0.73,6.21
			c0,4.27-0.54,5.29-1.12,5.88c-0.83,0.78-2.46,0.92-5.05,0.92l-6.85-0.01c-1.26,0-1.31-0.14-1.3-1.6v-2.82
			c0-1.89,0.05-3.06,0.24-3.74c0.25-0.96,0.97-1.3,1.84-1.5l1.9-0.44c0.29-0.24,0.29-1.06-0.05-1.26c-1.07,0-2.91,0.18-4.65,0.18
			c-1.84,0-3.73-0.18-4.9-0.18c-0.34,0.18-0.34,1.02-0.05,1.26l1.99,0.39c1.21,0.24,1.5,0.59,1.7,1.17
			c0.19,0.57,0.28,2.08,0.28,4.12v2.82c0,1.46,0,1.6-1.36,1.6h-9.71c-1.84,0-1.94,0-1.94-1.46l0.01-3.48c0-2.14,0.05-3.7,0.29-4.71
			c0.63-2.53,2.33-2.96,4.61-3.69c0.3-0.24,0.19-1.02-0.09-1.22c-2.14,0.2-5.63,0.48-6.45,0.78c0.15,0.58,0.14,3.45,0.14,6.54
			l0,9.13c0,1.98-0.05,3.62-0.15,5.72c0.15,0.3,1.02,0.4,1.21,0.1l0.1-0.78C66.67,308.64,67.4,308.54,72.45,308.54z M79.46,357.25
			l17.15-3.32c5.01-0.96,5.5-0.96,6.49,1.62l0.31,0.79c0.34,0.23,1.08-0.02,1.17-0.33c-0.4-1.84-0.82-3.45-1.21-5.5
			c-0.36-1.85-0.62-3.48-1.02-6.08c-0.2-0.26-1.08-0.19-1.22,0.14l0.12,1.41c0.23,2.72-0.39,3.08-5.38,4.05l-6.72,1.31
			c-1.43,0.26-1.55,0.19-1.98-2.1l-2.63-13.64c-0.45-2.29-0.37-2.4,1.06-2.68l6.72-1.3c5-0.97,5.48-1.05,6.52,1.76l0.32,0.88
			c0.34,0.24,1.1-0.01,1.18-0.33c-0.5-2.08-0.89-3.78-1.27-5.73c-0.36-1.86-0.61-3.49-0.96-5.8c-0.21-0.25-1.08-0.19-1.22,0.13
			l0.08,1.17c0.21,2.84-0.4,3.04-5.4,4.01l-17.16,3.32c-5,0.97-5.73,1.02-6.56-1.69l-0.29-0.99c-0.24-0.24-1.07,0.02-1.16,0.33
			c0.51,2.12,0.87,3.74,1.23,5.59c0.38,1.95,0.64,3.58,0.98,5.79c0.2,0.26,1.06,0.19,1.21-0.13l-0.09-0.92
			c-0.25-2.88,0.44-3.12,5.45-4.08l5.48-1.06c1.48-0.28,1.54-0.19,1.98,2.09l2.63,13.63c0.45,2.29,0.42,2.4-1.06,2.68l-5.48,1.07
			c-5.01,0.96-5.74,1.01-6.56-1.7l-0.27-0.89c-0.25-0.25-1.09,0.02-1.18,0.33c0.5,2.02,0.85,3.63,1.21,5.5
			c0.39,2.04,0.62,3.68,1.02,6.03c0.19,0.26,1.07,0.19,1.21-0.14L74,361.22C73.71,358.71,74.45,358.21,79.46,357.25z M111.26,373.02
			c-0.24-0.21-1.09,0.02-1.16,0.36l0.44,1.5c0.83,2.71,0.19,3.07-4.54,4.97l-20.04,8.06c-1.49,0.59-1.52,0.66-2.05-0.69l-1.29-3.21
			c-1-2.48-1.32-4.34-0.97-5.68c0.22-0.87,1.77-1.86,2.84-2.45c0.18-0.33-0.13-1.1-0.56-1.13c-1.3,0.68-5.07,1.83-7.11,2.07
			c-0.15,0.16,0.01,0.68,0.2,0.87c1.44,0.2,1.69,0.57,2.67,3L87,398.94c0.84,2.07,1.47,3.55,0.14,4.39
			c-0.08,0.19,0.2,0.76,0.35,0.86c1.92-0.41,5.07-0.9,7.39-0.98c0.29-0.33,0.26-1.05-0.16-1.31c-1.33-0.04-2.5-0.08-3.92-0.78
			c-1.49-0.7-2.57-3.15-3.35-5.08l-1-2.48c-0.54-1.35-0.5-1.37,0.89-1.93l20.13-8.09c4.73-1.91,5.5-1.96,6.75,0.52l0.79,1.57
			c0.38,0.26,1.1-0.13,1.13-0.46c-1.25-2.84-1.94-4.4-2.66-6.21C112.76,377.18,112.21,375.63,111.26,373.02z M69.81,254.64
			l0.41-1.14c0.98-2.65,1.81-2.53,6.68-1.19l11.04,3.06c5.57,1.53,9.31,1.31,12.05-0.6c2.59-1.75,4.09-4.81,4.98-8.03
			c0.96-3.47,0.71-7.27-0.94-9.88c-2.09-3.4-6.2-5.24-10.28-6.36l-5.29-1.46c-2.61-0.72-7.99-2.2-9.36-3.29
			c-0.53-0.45-0.71-1.45-0.48-2.65l0.22-1.15c-0.22-0.31-0.81-0.53-1.14-0.21c-0.37,1.71-0.68,2.98-1.23,4.94
			c-0.51,1.82-1.02,3.55-1.61,5.29c0.11,0.33,0.69,0.6,1.09,0.4l0.41-1.14c0.42-1.14,0.98-1.9,1.64-2.08
			c1.63-0.41,7.03,0.99,9.93,1.78l5.37,1.5c7.12,1.96,11.75,6.01,9.86,12.8c-1.97,7.16-7.57,8.13-15.12,6.04l-10.1-2.78
			c-4.86-1.35-5.64-1.66-5.12-4.44l0.22-1.15c-0.11-0.33-0.92-0.45-1.14-0.21c-0.54,2.31-0.93,3.87-1.46,5.79
			c-0.52,1.86-1,3.45-1.74,5.76C68.78,254.56,69.54,254.88,69.81,254.64z M139.93,173.41l-0.85,0.88c-2,2.08-2.6,1.74-6.7-1.35
			l-13.79-10.42c-4.11-3.1-4.71-3.68-3.18-6.11l0.66-1.02c0.02-0.36-0.73-0.8-1.03-0.65c-1.38,1.99-2.34,3.33-3.51,4.88
			c-1.23,1.62-2.27,2.91-3.8,4.79c-0.06,0.32,0.58,0.92,0.9,0.81l0.81-0.91c1.91-2.15,2.63-1.72,6.74,1.38l13.78,10.42
			c4.11,3.1,4.59,3.59,3.14,6.07l-0.62,1.06c0.05,0.41,0.74,0.81,1.03,0.67c1.38-2,2.33-3.36,3.56-4.98
			c1.17-1.55,2.21-2.84,3.75-4.72C140.91,173.91,140.27,173.3,139.93,173.41z M192.52,119.6c0.32,2.81,0.14,4.95-0.32,5.83
			c-0.61,1.02-1.69,1.95-4.82,3.99c-3.58,2.33-4.73,2.43-5.53,2.26c-1.11-0.28-2.12-1.58-3.53-3.74l-3.72-5.75
			c-0.69-1.06-0.59-1.18,0.63-1.96l2.36-1.53c1.59-1.04,2.59-1.63,3.26-1.83c0.95-0.33,1.63,0.1,2.28,0.73l1.39,1.35
			c0.36,0.11,1.05-0.34,1.03-0.72c-0.58-0.9-1.73-2.34-2.69-3.81c-1-1.55-1.87-3.24-2.51-4.21c-0.35-0.19-1.04,0.26-1.09,0.64
			l0.76,1.88c0.46,1.15,0.33,1.58-0.05,2.05c-0.38,0.49-1.59,1.38-3.31,2.5l-2.36,1.53c-1.22,0.79-1.35,0.87-2.08-0.27l-5.29-8.15
			c-1.01-1.55-1.06-1.63,0.16-2.43l2.93-1.9c1.8-1.16,3.13-1.97,4.11-2.32c2.46-0.84,3.75,0.35,5.61,1.86
			c0.36,0.11,0.95-0.39,0.96-0.74c-1.33-1.69-3.47-4.46-4.16-5c-0.41,0.45-2.81,2.01-5.42,3.69l-7.66,4.97
			c-1.65,1.08-3.07,1.93-4.88,3c-0.16,0.28,0.23,1.06,0.58,1.06l0.71-0.34c2.59-1.28,3.07-0.71,5.81,3.52l9.52,14.65
			c2.76,4.28,2.96,5.02,0.77,6.73l-1.27,1c-0.08,0.4,0.42,1,0.75,0.97c2.35-1.64,3.7-2.58,5.46-3.72l3.66-2.38
			c3.63-2.34,7.28-4.66,11-6.96c-0.17-1.43-1.19-5.22-1.84-6.84C193.33,118.96,192.68,119.21,192.52,119.6z M316.91,64.5
			c-0.77,1.24-1.2,1.34-3.83,1.27l-19.64-0.49c-2.23-0.05-3.83-0.03-4.09-1.6c-0.15-0.14-0.77-0.12-0.92-0.02
			c-0.39,1.93-1.2,5.01-2.03,7.18c0.19,0.4,0.86,0.66,1.25,0.37c0.57-1.21,1.08-2.26,2.28-3.3c1.24-1.08,3.9-1.12,5.99-1.05
			l2.67,0.05c1.46,0.03,1.45,0.09,1.41,1.59l-0.53,21.68c-0.12,5.1-0.38,5.82-3.15,6l-1.75,0.1c-0.39,0.23-0.31,1.06-0.03,1.22
			c3.1-0.02,4.81-0.03,6.75,0.02c1.94,0.04,3.59,0.15,6.35,0.31c0.3-0.14,0.41-1.02,0.13-1.21l-1.55-0.18
			c-2.81-0.31-2.9-1.05-2.77-6.15l0.53-21.58c0.04-1.6,0-1.66,1.46-1.62l3.44,0.08c2.67,0.07,4.5,0.5,5.6,1.36
			c0.71,0.55,1.02,2.35,1.13,3.57c0.24,0.31,1.05,0.33,1.26-0.06c-0.11-1.45,0.33-5.38,0.91-7.35
			C317.68,64.47,317.16,64.41,316.91,64.5z M278.01,97.55h-1.22c-2.89,0-3.06-0.66-3.68-5.76l-2.06-17.16
			c-0.62-5.1-0.62-5.93,2.19-6.51l1.19-0.24c0.27-0.23,0.08-1.08-0.23-1.18c-2.4,0.39-4.04,0.62-5.96,0.85
			c-2.02,0.25-3.67,0.39-6.09,0.59c-0.28,0.18-0.26,1.06,0.05,1.21l1.22-0.05c2.86-0.09,3.06,0.72,3.69,5.82l2.05,17.15
			c0.62,5.11,0.6,5.79-2.2,6.48l-1.19,0.29c-0.25,0.33-0.06,1.1,0.24,1.2c2.4-0.38,4.03-0.64,6.05-0.88
			c1.92-0.23,3.57-0.37,5.99-0.56C278.33,98.6,278.32,97.71,278.01,97.55z M247.13,86.28l-4.34-1.45c-2.01-0.66-4.76-2.09-5.43-4.82
			c-0.52-2.17-0.29-5.48,4.34-6.6c4.53-1.1,6.55,1.65,7.71,3.77c0.3,0.23,1.02-0.09,1.14-0.43c-0.47-1.98-1.55-4.51-2.25-5.54
			c-0.37,0.1-1.06,0.16-1.71,0.12c-1.31-0.03-3.08,0.1-4.54,0.46c-6.13,1.49-8.74,5.97-7.65,10.45c0.94,3.86,4.32,5.89,7.07,6.87
			l5.19,1.84c3.98,1.38,4.97,3.58,5.47,5.66c0.7,2.83-0.61,5.89-4.57,6.86c-5.47,1.33-8.53-2.82-9.82-5.05
			c-0.26-0.24-0.94,0.02-1.1,0.42c0.64,2.19,2.06,5.39,2.89,6.29c1.01,0.3,3.8,0.91,7.76-0.05c6.14-1.5,9.19-5.98,7.92-11.17
			C254.14,89.41,250.55,87.39,247.13,86.28z M150.45,137.19c-1.89-5.06-3.28-9.2-3.9-11.78c-0.26-1.17-0.15-2.08,0.62-2.97l0.97-1.1
			c0.01-0.33-0.54-0.89-0.91-0.79c-1.08,1.19-2.12,2.26-3.27,3.39c-1.32,1.29-2.67,2.54-3.71,3.42c-0.12,0.38,0.32,0.96,0.77,0.93
			l0.69-0.53c1.35-1.06,1.97-1.11,2.2-0.86c0.24,0.23,0.58,0.66,1.02,1.65c0.87,2.08,3.06,7.6,4.36,10.94
			c1,2.62,3.03,7.62,4.19,10.97c-5.6-2.27-11.1-4.71-16.63-7.18c-3.65-1.58-6.07-2.89-6.49-3.17c-0.23-0.3-0.16-0.79,0.99-2.25
			l0.46-0.57c0.04-0.44-0.54-0.9-0.91-0.8c-1.4,1.5-2.59,2.71-4.11,4.21c-1.49,1.45-2.63,2.5-3.71,3.41
			c-0.1,0.45,0.33,0.97,0.77,0.94l0.7-0.54c1.66-1.29,2.89-1.07,5.58,0.1l20.83,9.12c2.01,0.89,4.29,1.97,6.1,3.05
			c0.24-0.09,0.45-0.23,0.63-0.4c0.14-0.13,0.24-0.31,0.27-0.49c-1.21-2.4-3.5-8.03-5.23-12.59L150.45,137.19z M354.91,71.97
			c-1.48-0.29-2.85-0.61-4.56-1.04c-0.41,0.11-0.59,0.77-0.32,1.16l0.84,0.27c1.11,0.36,1.91,0.87,1.85,1.15
			c-0.11,0.58-2.52,3.46-4.34,5.68c-1.98,2.48-4.09,4.93-6.06,7.16c-1.21-3.65-2.22-7.76-3.29-11.63c-0.14-0.53-0.84-3.48-0.74-3.96
			c0.07-0.38,0.46-0.55,2.16-0.46l0.64,0.02c0.34-0.23,0.49-0.98,0.08-1.22c-1.2-0.14-2.93-0.43-5.12-0.87
			c-2.28-0.45-3.99-0.83-5.49-1.22c-0.38,0.12-0.55,0.77-0.33,1.16l1.28,0.5c1.39,0.52,2.05,0.91,3.05,4.36l3.46,12.06
			c0.85,2.94,0.87,3.59,0.36,6.21l-0.48,2.43c-1.01,5.09-1.24,5.74-4.07,5.47l-1.49-0.14c-0.34,0.23-0.4,1.02-0.15,1.22
			c2.55,0.4,4.26,0.69,6.26,1.08c1.9,0.38,3.52,0.75,6.45,1.43c0.32-0.09,0.57-0.84,0.33-1.19l-1.77-0.5
			c-2.55-0.7-2.67-1.52-1.68-6.61l0.5-2.48c0.72-3.66,0.95-4.07,3.77-7.27l4.01-4.59c3.19-3.63,5.22-6.34,7.78-6.28l1.38,0.02
			c0.39-0.22,0.47-0.89,0.15-1.2C357.72,72.49,356.39,72.26,354.91,71.97z M231.92,108.13c-1.24,0.43-2.57,0.42-3.62,0.07
			c-4.12-1.24-8.02-3.79-14.06-8.01c-0.38-0.26-0.79-0.6-0.68-0.97c1.84-1.85,4.18-5.61,2.36-9.84c-1.34-3.12-3.77-4.46-6.38-4.65
			c-2.53-0.23-5.26,0.68-8.02,1.86c-4.37,1.88-7.38,3.33-9.79,4.63c-0.27,0.33,0.02,1.04,0.43,1.14l1.51-0.45
			c1.92-0.56,2.39,0.13,4.21,4.38l6.88,16c2.01,4.68,2.17,5.3-0.28,6.72l-1.06,0.61c-0.14,0.43,0.25,1.06,0.57,1.09
			c2.06-1,3.63-1.74,5.51-2.54c1.77-0.76,3.31-1.36,5.36-2.14c0.22-0.25-0.02-1.05-0.38-1.16l-1,0.27
			c-2.74,0.75-3.05,0.25-5.07-4.43l-2.41-5.61c-0.41-0.93-0.34-1.02,1.67-1.88c1.79-0.77,2.69-0.64,3.78,0.06
			c2.24,1.41,5.39,3.7,7.27,4.85c5.1,3.16,7.85,3.28,11.64,1.65c0.84-0.36,1.52-0.75,1.86-1.05
			C232.38,108.45,232.18,108.12,231.92,108.13z M212.31,98.28c-0.87,1.53-2.49,2.45-4.09,3.14c-2.28,0.97-2.98,1.17-3.18,1.1
			c0,0-0.42-0.62-0.76-1.42l-4.48-10.44c-0.54-1.25-0.49-1.48,2.28-2.67c4.95-2.13,8.58,0.28,10.09,3.8
			C213.47,94.82,213.11,96.83,212.31,98.28z M404.99,89.99c-8.92-4.53-18.76-1.21-23.15,7.45c-3.97,7.79-1.67,17.61,7.94,22.49
			c8.36,4.24,18.25,1.27,22.69-7.48C416.33,104.83,414.98,95.07,404.99,89.99z M407.46,111.6c-4.33,8.53-11.24,9.92-16.45,7.28
			c-8.52-4.33-7.42-14.22-4.16-20.63c4.81-9.48,12.21-9.58,16.73-7.3C411.84,95.15,411.08,104.46,407.46,111.6z M531.93,305.55
			c-0.78,0.11-1.69-0.23-3.4-0.99l-12.85-5.58c-5.33-2.3-8.41-3.81-10.59-4.79c-1.72-0.76-2.2-1.85-2.24-3.02l-0.07-1.61
			c-0.22-0.3-1.01-0.25-1.22,0.04c-0.02,1.32,0,3.06-0.09,4.67c-0.15,2.28-0.23,3.77-0.39,5.03c0.18,0.45,0.95,0.49,1.22,0.16
			l0.21-1.59c0.16-1.16,0.46-1.39,1.04-1.36c0.53,0.03,1.82,0.44,3.98,1.26l5.01,1.95c0.99,0.39,1.13,0.68,1.07,1.89l-0.36,7.32
			c-0.07,1.45-0.23,1.63-1.31,1.93l-6.69,1.8c-1.17,0.33-2.06,0.54-2.6,0.5c-0.48-0.01-0.74-0.71-0.78-1.73l-0.08-1.41
			c-0.22-0.35-1.01-0.33-1.22,0.04c-0.01,1.41,0,3.25-0.12,5.58c-0.1,2.19-0.24,3.88-0.44,5.86c0.19,0.25,0.96,0.38,1.22,0.05
			l0.22-1.3c0.33-2.07,1.1-2.67,5.33-3.86l19.8-5.7c2.16-0.62,4.44-1.29,6.6-1.81c0.35-0.08,0.47-0.42,0.48-0.71
			C533.03,307.59,532.2,306.72,531.93,305.55z M527.81,306.32c-0.6,0.26-1.93,0.64-3.11,0.97l-8.03,2.24
			c-1.33,0.37-1.52,0.26-1.45-1.15l0.29-5.96c0.07-1.36,0.13-1.4,1.22-0.96l8.28,3.46c1.43,0.61,2.57,1.14,2.81,1.3L527.81,306.32z
			 M504.66,372.61c-7.98-3.56-17.66-0.77-22.05,9.08c-3.82,8.56-0.35,18.28,8.59,22.27c7.81,3.48,17.5,1.64,22.07-8.6
			C517.35,386.23,513.53,376.55,504.66,372.61z M512.24,394c-3.78,8.47-13.11,8.18-20.43,4.92c-8.74-3.89-10.48-10.72-8.09-16.05
			c3.89-8.73,13.82-8.12,20.38-5.2C513.82,382,514.3,389.39,512.24,394z"/>
		<path class="st2" d="M100.81,176.57l-0.24,0.64c-0.52,1.49-0.64,2.52-0.39,2.89c1.15,1.54,6.48,4.32,8.45,5.38l10.21,5.51
			c1.28,0.7,6.37,3.44,7.54,3.91c0.22,0.23,0.28,0.59,0.04,1.07c-1,0.12-3.16,0.55-9.4,1.98l-16.63,3.81
			c-1.95,0.45-7.02,1.46-8.45,1.84l-0.04,0.09c0.43,0.45,1.39,1.02,2.66,1.71l9.31,5.03c2.01,1.09,7.59,4.04,9.26,4
			c0.61,0,1.33-0.72,1.99-1.74l0.84-1.26c0.48-0.07,0.97,0.25,1.03,0.66c-1.12,1.88-1.98,3.34-2.84,4.92
			c-0.96,1.79-1.54,2.97-2.26,4.51c-0.37,0.18-1.01-0.1-1.12-0.5l0.49-1.22c0.4-1.04,0.52-1.86,0.17-2.33
			c-1.22-1.43-6.45-4.2-8.5-5.31l-12.34-6.67c-1.19-0.64-2.12-1.08-3.57-0.72c-0.93,0.28-1.78,1.13-2.47,2.1l-0.47,0.68
			c-0.39,0.12-1.03-0.23-1.02-0.66c1.1-1.72,2.31-4,2.73-4.76c0.36-0.67,0.72-1.42,0.93-2.02c2.64,0.32,11-1.68,13.34-2.24
			l6.89-1.63c4.88-1.18,8.41-1.98,11.54-2.88l0.04-0.09c-0.12-0.28-0.81-0.66-1.7-1.13l-9.13-4.94c-2.01-1.08-7.59-4.04-9.3-3.92
			c-0.52,0.04-1.15,0.59-2.28,2.18l-0.48,0.68c-0.42,0.16-1.08-0.25-1.02-0.66c1.14-1.91,1.97-3.35,2.84-4.97
			c1-1.83,1.56-2.96,2.25-4.46C100.1,175.85,100.7,176.17,100.81,176.57"/>
	</g>
</g>
<g id="TM" class="st0">
	<g class="st1">
		<path class="st2" d="M483.19,490.15h-4v-2.05h10.23v2.05h-4v10.55h-2.23V490.15z"/>
		<path class="st2" d="M491.75,488.1h2.36l3.83,5.96l3.83-5.96h2.36v12.6h-2.21v-9.04l-3.98,5.94h-0.07l-3.94-5.91v9h-2.18V488.1z"
			/>
	</g>
</g>
</svg>
